<svg id="svg" version="1.1" xmlns="http://www.w3.org/2000/svg" xmlns:xlink="http://www.w3.org/1999/xlink" width="400" height="400" viewBox="0, 0, 400,400"><g id="svgg"><path id="path0" d="M184.758 41.773 C 184.625 41.907,182.285 42.195,179.558 42.412 C 155.779 44.307,131.817 51.579,112.800 62.672 C 104.414 67.563,99.403 71.003,91.800 77.090 C 85.514 82.122,76.238 91.408,71.319 97.595 C 67.451 102.458,62.946 108.724,61.638 111.061 C 61.287 111.687,60.897 112.290,60.771 112.400 C 60.645 112.510,60.424 112.870,60.280 113.200 C 60.136 113.530,59.479 114.700,58.820 115.800 C 51.546 127.940,45.280 145.797,43.170 160.400 C 41.129 174.527,41.427 190.564,43.958 202.800 C 44.163 203.790,44.450 205.320,44.597 206.200 C 44.744 207.080,45.007 208.160,45.183 208.600 C 45.358 209.040,45.722 210.390,45.990 211.600 C 46.950 215.929,50.241 225.242,53.055 231.600 C 54.478 234.813,58.744 243.144,59.200 243.600 C 59.310 243.710,59.660 244.250,59.978 244.800 C 61.730 247.834,63.323 250.280,65.983 254.025 C 67.614 256.321,69.055 258.290,69.185 258.400 C 69.315 258.510,70.043 259.410,70.805 260.400 C 74.484 265.185,83.321 274.238,90.535 280.611 C 91.235 281.229,97.001 285.583,100.400 288.060 C 102.050 289.262,104.435 290.859,105.700 291.608 C 106.965 292.356,108.000 293.111,108.000 293.285 C 108.000 293.458,108.172 293.600,108.382 293.600 C 108.593 293.600,109.718 294.167,110.882 294.860 C 115.819 297.797,128.152 304.000,129.055 304.000 C 129.163 304.000,130.185 304.425,131.326 304.943 C 132.467 305.462,134.570 306.284,136.000 306.770 C 137.430 307.255,138.960 307.809,139.400 308.000 C 139.840 308.191,140.830 308.535,141.600 308.765 C 142.370 308.994,144.092 309.546,145.427 309.991 C 146.761 310.436,148.236 310.800,148.703 310.800 C 149.170 310.800,149.652 310.960,149.773 311.156 C 149.894 311.351,150.579 311.608,151.296 311.727 C 152.013 311.845,153.410 312.146,154.400 312.396 C 155.390 312.646,157.010 313.010,158.000 313.204 C 158.990 313.399,160.790 313.758,162.000 314.001 C 178.843 317.386,202.386 317.723,219.500 314.824 C 225.504 313.806,226.700 313.586,228.400 313.183 C 229.390 312.948,230.920 312.600,231.800 312.408 C 232.680 312.217,234.030 311.881,234.800 311.662 C 235.570 311.443,237.370 310.970,238.800 310.612 C 240.230 310.253,241.713 309.789,242.095 309.580 C 242.477 309.371,243.141 309.200,243.571 309.200 C 244.001 309.200,244.464 309.020,244.600 308.800 C 244.736 308.580,245.199 308.400,245.629 308.400 C 246.059 308.400,246.723 308.234,247.105 308.032 C 247.487 307.830,248.880 307.272,250.200 306.793 C 251.520 306.314,252.960 305.765,253.400 305.574 C 253.840 305.383,256.306 304.334,258.879 303.244 C 262.973 301.509,265.516 300.250,273.600 295.956 C 274.590 295.430,275.460 294.865,275.533 294.700 C 275.607 294.535,275.836 294.400,276.044 294.400 C 276.951 294.400,291.646 284.102,294.873 281.204 C 295.243 280.872,296.539 279.790,297.753 278.800 C 306.952 271.298,320.673 254.800,327.267 243.314 C 328.613 240.970,332.578 233.131,333.306 231.375 C 333.666 230.509,334.522 228.450,335.210 226.800 C 336.453 223.819,339.094 216.061,339.908 213.000 C 343.297 200.265,344.195 193.169,344.185 179.200 C 344.175 165.071,343.017 156.339,339.595 144.600 C 339.403 143.940,339.076 142.770,338.869 142.000 C 338.662 141.230,338.393 140.330,338.271 140.000 C 338.149 139.670,337.409 137.654,336.626 135.521 C 333.907 128.113,330.662 121.230,327.045 115.200 C 326.451 114.210,325.862 113.085,325.736 112.700 C 325.610 112.315,325.348 112.000,325.153 112.000 C 324.959 112.000,324.800 111.812,324.800 111.583 C 324.800 111.353,323.675 109.540,322.300 107.552 C 320.925 105.565,319.530 103.537,319.200 103.046 C 318.653 102.231,315.675 98.475,315.200 98.000 C 315.090 97.890,314.374 96.990,313.609 96.000 C 310.138 91.510,298.126 79.737,293.611 76.400 C 291.972 75.189,289.874 73.501,289.600 73.174 C 289.138 72.621,279.094 65.984,275.465 63.833 C 255.359 51.917,232.259 44.596,207.800 42.390 C 202.389 41.901,185.090 41.439,184.758 41.773 M205.400 62.418 C 218.488 63.499,236.526 67.521,244.600 71.159 C 245.040 71.357,246.030 71.749,246.800 72.031 C 247.570 72.312,249.267 73.050,250.571 73.671 C 251.875 74.292,253.180 74.800,253.471 74.800 C 253.762 74.800,254.000 74.980,254.000 75.200 C 254.000 75.420,254.272 75.600,254.605 75.600 C 255.169 75.600,256.744 76.333,257.200 76.808 C 257.310 76.923,258.660 77.637,260.200 78.395 C 261.740 79.154,263.630 80.156,264.400 80.623 C 266.822 82.090,272.591 85.779,272.800 85.994 C 272.910 86.107,274.170 87.003,275.600 87.985 C 277.030 88.967,278.409 89.957,278.664 90.185 C 278.920 90.413,280.475 91.680,282.120 93.000 C 284.906 95.236,295.370 105.499,297.617 108.200 C 301.986 113.452,306.592 119.868,308.752 123.714 C 309.177 124.471,309.767 125.520,310.062 126.045 C 310.358 126.570,310.701 127.090,310.824 127.200 C 313.256 129.370,320.338 148.569,322.332 158.400 C 323.496 164.138,324.181 170.254,324.191 175.000 L 324.200 179.400 317.200 179.400 L 310.200 179.400 309.942 175.200 C 309.544 168.703,308.856 163.798,307.602 158.500 C 307.381 157.565,307.045 156.125,306.855 155.300 C 306.204 152.470,303.925 146.197,301.878 141.600 C 300.123 137.659,298.879 135.295,295.571 129.620 C 295.257 129.082,294.685 128.283,294.300 127.845 C 293.915 127.407,293.600 126.905,293.600 126.729 C 293.600 126.553,293.340 126.092,293.022 125.705 C 292.705 125.317,291.580 123.830,290.524 122.400 C 283.265 112.573,271.310 101.612,261.210 95.521 C 260.005 94.794,258.205 93.710,257.210 93.111 C 255.302 91.962,247.052 87.822,244.000 86.481 C 238.765 84.181,228.292 80.782,222.800 79.600 C 221.590 79.340,219.970 78.976,219.200 78.792 C 217.907 78.482,216.216 78.206,209.502 77.211 C 198.482 75.578,180.613 76.091,169.600 78.356 C 168.610 78.559,166.810 78.913,165.600 79.142 C 158.707 80.444,147.852 83.948,140.400 87.275 C 135.479 89.472,127.571 93.701,126.453 94.733 C 126.136 95.027,125.499 95.410,125.038 95.586 C 120.149 97.445,104.060 111.740,97.544 120.015 C 93.618 125.001,93.200 125.568,93.200 125.915 C 93.200 126.113,92.840 126.602,92.400 127.000 C 91.960 127.398,91.600 127.932,91.600 128.187 C 91.600 128.441,91.285 129.007,90.900 129.445 C 90.100 130.355,90.042 130.453,87.249 135.669 C 83.042 143.524,80.026 151.916,78.003 161.400 C 76.760 167.226,75.792 178.220,76.167 182.266 C 77.229 193.732,77.572 196.016,79.192 202.400 C 81.204 210.332,84.578 218.510,89.149 226.531 C 90.069 228.146,94.494 234.802,95.400 235.935 C 105.587 248.669,114.142 256.387,126.600 264.085 C 131.243 266.954,143.745 273.200,144.845 273.200 C 145.205 273.200,145.729 273.425,147.495 274.338 C 147.987 274.592,148.716 274.800,149.115 274.800 C 149.514 274.800,150.011 274.948,150.220 275.128 C 150.429 275.308,151.950 275.868,153.600 276.372 C 155.250 276.875,157.013 277.448,157.519 277.644 C 158.024 277.840,158.869 278.000,159.395 278.000 C 159.922 278.000,160.449 278.156,160.567 278.346 C 160.684 278.536,161.460 278.806,162.290 278.944 C 163.121 279.083,164.700 279.387,165.800 279.619 C 184.518 283.578,206.118 283.271,224.000 278.793 C 224.990 278.545,226.387 278.245,227.104 278.127 C 227.821 278.008,228.506 277.751,228.627 277.556 C 228.748 277.360,229.366 277.200,230.000 277.200 C 230.634 277.200,231.264 277.020,231.400 276.800 C 231.536 276.580,232.076 276.400,232.600 276.400 C 233.124 276.400,233.664 276.220,233.800 276.000 C 233.936 275.780,234.451 275.600,234.944 275.600 C 235.437 275.600,236.011 275.457,236.220 275.282 C 236.429 275.107,237.320 274.732,238.200 274.448 C 239.080 274.165,240.430 273.657,241.200 273.319 C 241.970 272.982,243.230 272.434,244.000 272.103 C 247.342 270.665,252.052 268.365,255.046 266.709 C 258.146 264.994,259.600 264.823,259.600 266.172 C 259.600 266.328,260.140 267.241,260.800 268.200 C 261.460 269.159,262.000 270.024,262.000 270.121 C 262.000 270.219,262.810 271.646,263.800 273.293 C 265.681 276.423,266.009 277.600,265.000 277.600 C 264.670 277.600,264.399 277.735,264.397 277.900 C 264.395 278.065,263.990 278.398,263.497 278.640 C 263.004 278.882,260.080 280.341,257.000 281.882 C 253.920 283.424,249.690 285.361,247.600 286.187 C 245.510 287.013,243.440 287.841,243.000 288.027 C 242.560 288.212,240.400 288.932,238.200 289.627 C 236.000 290.321,233.887 291.049,233.505 291.245 C 233.123 291.440,232.369 291.600,231.829 291.600 C 231.289 291.600,230.736 291.780,230.600 292.000 C 230.464 292.220,229.821 292.400,229.171 292.400 C 228.521 292.400,227.677 292.564,227.295 292.765 C 226.913 292.965,225.520 293.340,224.200 293.597 C 222.880 293.854,221.080 294.217,220.200 294.402 C 218.409 294.779,214.590 295.369,209.800 296.008 C 198.097 297.570,175.692 296.582,164.400 294.006 C 161.658 293.380,158.744 292.775,157.296 292.531 C 156.579 292.411,155.894 292.151,155.773 291.956 C 155.652 291.760,155.171 291.600,154.705 291.600 C 153.925 291.600,152.192 291.134,150.200 290.390 C 149.760 290.226,148.590 289.858,147.600 289.574 C 146.610 289.289,145.620 288.941,145.400 288.800 C 145.180 288.659,144.190 288.299,143.200 288.000 C 142.210 287.701,141.220 287.334,141.000 287.184 C 140.780 287.035,139.700 286.587,138.600 286.190 C 136.034 285.262,125.209 279.994,122.600 278.402 C 121.500 277.731,120.330 277.064,120.000 276.920 C 119.183 276.563,111.250 271.277,109.971 270.237 C 109.406 269.776,108.333 268.950,107.589 268.400 C 99.361 262.323,90.662 253.390,82.465 242.600 C 81.235 240.981,78.800 237.175,78.800 236.871 C 78.800 236.666,78.539 236.281,78.219 236.016 C 77.627 235.524,77.439 235.188,73.305 227.200 C 62.645 206.599,59.286 181.850,63.942 158.200 C 65.955 147.972,70.497 135.784,75.531 127.100 C 76.009 126.275,76.782 124.925,77.249 124.100 C 82.333 115.114,92.580 102.930,101.556 95.200 C 102.961 93.990,104.310 92.816,104.555 92.591 C 106.725 90.599,120.316 81.200,121.027 81.200 C 121.164 81.200,121.754 80.863,122.338 80.451 C 124.517 78.915,135.974 73.362,140.400 71.697 C 155.880 65.873,166.602 63.477,182.000 62.403 C 185.410 62.165,188.380 61.888,188.600 61.787 C 189.139 61.540,199.453 61.927,205.400 62.418 M0.163 216.000 C 0.225 229.530,0.415 241.050,0.584 241.600 C 0.921 242.691,1.412 245.751,1.805 249.200 C 1.943 250.410,2.212 251.760,2.403 252.200 C 2.594 252.640,2.858 253.720,2.991 254.600 C 3.123 255.480,3.333 256.876,3.458 257.703 C 3.582 258.529,3.845 259.305,4.042 259.426 C 4.239 259.548,4.400 260.256,4.400 261.000 C 4.400 261.744,4.580 262.464,4.800 262.600 C 5.020 262.736,5.200 263.456,5.200 264.200 C 5.200 264.944,5.360 265.652,5.556 265.773 C 5.751 265.894,6.013 266.579,6.137 267.296 C 6.657 270.310,6.910 271.200,7.245 271.200 C 7.440 271.200,7.600 271.639,7.600 272.176 C 7.600 272.713,7.780 273.264,8.000 273.400 C 8.220 273.536,8.400 274.177,8.400 274.824 C 8.400 275.471,8.580 276.000,8.800 276.000 C 9.020 276.000,9.200 276.450,9.200 277.000 C 9.200 277.550,9.360 278.000,9.556 278.000 C 9.751 278.000,9.891 278.225,9.867 278.500 C 9.796 279.318,10.899 282.400,11.263 282.400 C 11.448 282.400,11.600 282.762,11.600 283.205 C 11.600 284.013,11.693 284.260,12.932 286.732 C 13.300 287.465,13.600 288.237,13.600 288.447 C 13.600 288.657,14.680 291.037,16.000 293.736 C 17.320 296.435,18.400 298.858,18.400 299.122 C 18.400 299.385,18.580 299.600,18.800 299.600 C 19.020 299.600,19.200 299.870,19.200 300.200 C 19.200 300.530,19.335 300.801,19.500 300.801 C 19.665 300.802,20.250 301.792,20.800 303.000 C 21.350 304.208,21.935 305.198,22.100 305.199 C 22.265 305.199,22.400 305.388,22.400 305.617 C 22.400 305.846,22.760 306.420,23.200 306.892 C 23.640 307.364,24.000 307.987,24.000 308.275 C 24.000 308.564,24.180 308.800,24.400 308.800 C 24.620 308.800,24.800 309.160,24.800 309.600 C 24.800 310.040,24.950 310.400,25.132 310.400 C 25.315 310.400,25.718 310.895,26.027 311.500 C 26.659 312.738,27.978 314.737,28.637 315.455 C 28.878 315.717,29.305 316.487,29.586 317.166 C 29.867 317.845,30.255 318.400,30.449 318.400 C 30.642 318.400,30.800 318.590,30.800 318.822 C 30.800 319.054,31.339 319.819,31.998 320.522 C 32.657 321.225,33.197 322.025,33.198 322.300 C 33.199 322.575,33.356 322.800,33.548 322.800 C 34.257 322.800,34.391 319.362,34.396 301.076 C 34.399 287.816,34.526 282.430,34.830 282.619 C 35.067 282.765,34.423 281.741,33.400 280.342 C 30.191 275.958,30.534 276.450,28.306 273.022 C 28.028 272.594,27.485 271.885,27.100 271.446 C 26.715 271.008,26.400 270.493,26.400 270.303 C 26.400 270.112,25.680 268.896,24.800 267.600 C 23.920 266.304,23.200 265.127,23.200 264.984 C 23.200 264.841,22.851 264.233,22.424 263.634 C 21.357 262.136,16.393 252.458,14.815 248.800 C 14.103 247.150,13.268 245.277,12.960 244.639 C 12.652 244.000,12.400 243.323,12.400 243.134 C 12.400 242.946,12.055 242.028,11.634 241.096 C 11.212 240.163,10.635 238.680,10.352 237.800 C 10.069 236.920,9.693 236.029,9.518 235.820 C 9.343 235.611,9.200 235.037,9.200 234.544 C 9.200 234.051,9.020 233.536,8.800 233.400 C 8.580 233.264,8.400 232.724,8.400 232.200 C 8.400 231.676,8.220 231.136,8.000 231.000 C 7.780 230.864,7.600 230.401,7.600 229.971 C 7.600 229.541,7.429 228.877,7.220 228.495 C 7.011 228.113,6.547 226.630,6.188 225.200 C 5.830 223.770,5.359 221.970,5.142 221.200 C 4.609 219.311,4.217 217.598,3.449 213.800 C 1.962 206.444,1.564 203.950,0.605 196.000 C 0.096 191.777,0.060 193.418,0.163 216.000 M305.300 227.546 C 306.455 228.177,308.175 229.115,309.122 229.632 C 310.521 230.396,310.803 230.734,310.626 231.438 C 310.332 232.610,305.339 240.793,304.426 241.600 C 304.302 241.710,303.583 242.700,302.829 243.800 C 300.668 246.955,296.145 252.243,291.884 256.598 L 287.969 260.600 283.554 256.000 C 277.544 249.738,277.695 250.622,281.894 246.274 C 287.689 240.276,296.800 228.466,296.800 226.953 C 296.800 226.800,297.251 226.084,297.803 225.361 L 298.806 224.046 301.003 225.223 C 302.211 225.870,304.145 226.916,305.300 227.546 M351.200 282.377 C 351.200 282.782,347.716 287.555,346.803 288.400 C 346.684 288.510,346.076 289.230,345.451 290.000 C 340.459 296.154,328.395 308.218,323.400 312.051 C 322.740 312.558,322.110 313.071,322.000 313.192 C 321.376 313.876,317.707 316.718,317.200 316.910 C 316.833 317.049,316.794 317.149,317.100 317.168 C 317.493 317.193,317.600 321.564,317.600 337.600 C 317.600 348.820,317.709 358.000,317.842 358.000 C 318.075 358.000,321.185 355.671,321.600 355.187 C 321.710 355.059,322.183 354.693,322.650 354.374 C 323.453 353.827,326.212 351.455,329.522 348.465 C 332.563 345.720,336.000 342.253,336.000 341.932 C 336.000 341.749,336.230 341.600,336.512 341.600 C 336.793 341.600,337.288 341.223,337.612 340.762 C 337.935 340.300,338.965 339.118,339.900 338.133 C 340.835 337.148,341.600 336.248,341.600 336.131 C 341.600 336.015,342.249 335.271,343.043 334.477 C 343.836 333.684,344.961 332.401,345.543 331.628 C 346.124 330.854,347.275 329.498,348.100 328.613 C 348.925 327.728,349.600 326.871,349.600 326.709 C 349.600 326.547,350.063 325.916,350.628 325.307 L 351.656 324.200 351.615 303.220 C 351.592 291.681,351.489 282.156,351.387 282.053 C 351.284 281.951,351.200 282.096,351.200 282.377 M68.728 316.567 L 69.620 317.733 69.600 338.167 C 69.588 349.405,69.584 358.825,69.590 359.100 C 69.595 359.375,69.830 359.600,70.112 359.600 C 70.393 359.600,70.883 359.960,71.200 360.400 C 71.517 360.840,71.985 361.200,72.240 361.200 C 72.495 361.200,73.415 361.875,74.284 362.700 C 75.153 363.525,76.120 364.258,76.432 364.330 C 76.744 364.401,77.060 364.626,77.133 364.830 C 77.207 365.034,77.522 365.200,77.833 365.200 C 78.145 365.200,78.400 365.380,78.400 365.600 C 78.400 365.820,78.655 366.000,78.967 366.000 C 79.278 366.000,79.593 366.140,79.667 366.311 C 79.829 366.690,84.558 369.778,87.692 371.552 C 88.952 372.265,90.088 373.018,90.215 373.225 C 90.343 373.431,90.777 373.600,91.181 373.600 C 91.584 373.600,92.028 373.896,92.167 374.257 C 92.305 374.619,92.529 374.804,92.664 374.669 C 92.799 374.534,93.380 374.755,93.955 375.159 C 94.530 375.564,95.389 376.016,95.864 376.163 C 96.339 376.310,96.946 376.694,97.213 377.015 C 97.480 377.337,98.156 377.600,98.716 377.600 C 99.275 377.600,99.616 377.718,99.472 377.862 C 99.328 378.005,99.973 378.509,100.905 378.981 C 103.294 380.191,103.187 381.143,103.194 358.561 L 103.200 338.121 101.500 337.386 C 99.040 336.321,90.680 331.613,84.622 327.879 C 84.194 327.616,83.485 327.085,83.046 326.700 C 82.608 326.315,82.013 326.000,81.725 326.000 C 81.436 326.000,81.200 325.842,81.200 325.649 C 81.200 325.455,80.660 325.073,80.000 324.800 C 79.340 324.527,78.800 324.145,78.800 323.951 C 78.800 323.758,78.622 323.600,78.403 323.600 C 78.185 323.600,77.150 322.954,76.103 322.165 C 75.057 321.376,73.663 320.341,73.008 319.865 C 72.352 319.389,70.920 318.190,69.825 317.200 C 68.456 315.961,68.114 315.764,68.728 316.567 M281.000 339.200 C 280.340 339.608,279.485 339.955,279.100 339.971 C 278.715 339.987,278.400 340.180,278.400 340.400 C 278.400 340.620,278.147 340.800,277.838 340.800 C 277.529 340.800,276.584 341.144,275.738 341.563 C 273.175 342.836,270.433 344.000,269.999 344.000 C 269.774 344.000,269.277 344.159,268.895 344.353 C 268.513 344.548,267.705 344.908,267.100 345.153 C 266.495 345.399,265.505 345.804,264.900 346.054 C 264.295 346.303,263.440 346.653,263.000 346.832 C 259.624 348.204,245.491 352.400,244.248 352.400 C 243.912 352.400,243.179 352.609,242.619 352.864 L 241.600 353.328 241.600 373.493 C 241.600 395.328,241.638 395.718,243.636 394.470 C 244.050 394.212,244.831 394.000,245.371 394.000 C 245.911 394.000,246.464 393.820,246.600 393.600 C 246.736 393.380,247.366 393.200,248.000 393.200 C 248.634 393.200,249.264 393.020,249.400 392.800 C 249.536 392.580,250.267 392.400,251.024 392.400 C 251.781 392.400,252.400 392.240,252.400 392.045 C 252.400 391.850,252.985 391.574,253.700 391.431 C 256.824 390.806,257.200 390.690,257.200 390.355 C 257.200 390.160,257.740 390.000,258.400 390.000 C 259.060 390.000,259.600 389.850,259.600 389.667 C 259.600 389.483,259.828 389.333,260.106 389.333 C 260.882 389.333,265.350 387.919,265.780 387.537 C 265.989 387.352,266.396 387.200,266.684 387.200 C 266.973 387.200,268.062 386.819,269.104 386.353 C 270.147 385.888,271.630 385.236,272.400 384.906 C 273.170 384.575,275.100 383.696,276.689 382.952 C 278.277 382.209,279.852 381.600,280.189 381.600 C 280.525 381.600,280.800 381.420,280.800 381.200 C 280.800 380.980,281.160 380.800,281.600 380.800 C 282.040 380.800,282.405 380.575,282.410 380.300 C 282.551 373.458,282.542 338.409,282.400 338.429 C 282.290 338.445,281.660 338.792,281.000 339.200 M145.400 373.105 C 145.400 384.047,145.253 393.405,145.073 393.900 C 144.801 394.649,144.885 394.800,145.573 394.800 C 146.028 394.800,146.400 394.980,146.400 395.200 C 146.400 395.420,147.019 395.600,147.776 395.600 C 148.533 395.600,149.264 395.780,149.400 396.000 C 149.536 396.220,150.526 396.400,151.600 396.400 C 152.674 396.400,153.664 396.580,153.800 396.800 C 153.936 397.020,154.937 397.200,156.024 397.200 C 157.111 397.200,158.000 397.365,158.000 397.566 C 158.000 397.767,159.125 398.028,160.500 398.145 C 161.875 398.263,164.260 398.555,165.800 398.795 C 170.750 399.566,176.407 399.914,184.700 399.958 L 192.800 400.000 192.800 379.455 L 192.800 358.909 185.900 358.648 C 176.427 358.290,169.037 357.601,161.800 356.403 C 160.480 356.185,158.320 355.834,157.000 355.624 C 155.680 355.414,153.790 355.072,152.800 354.865 C 151.810 354.657,150.010 354.285,148.800 354.037 C 147.590 353.789,146.330 353.502,146.000 353.398 C 145.472 353.232,145.400 355.603,145.400 373.105 M195.111 358.693 C 196.051 358.778,197.491 358.777,198.311 358.691 C 199.130 358.605,198.360 358.536,196.600 358.537 C 194.840 358.539,194.170 358.609,195.111 358.693 " stroke="none" fill="#fcac33" fill-rule="evenodd"></path><path id="path1" d="M172.000 0.441 C 170.130 0.633,167.340 0.898,165.800 1.031 C 164.260 1.165,162.820 1.421,162.600 1.601 C 162.380 1.782,161.300 1.975,160.200 2.032 C 159.100 2.088,158.020 2.262,157.800 2.418 C 157.580 2.574,156.410 2.815,155.200 2.953 C 150.821 3.453,149.600 3.690,149.600 4.042 C 149.600 4.239,148.790 4.400,147.800 4.400 C 146.810 4.400,146.000 4.580,146.000 4.800 C 146.000 5.020,145.089 5.200,143.976 5.200 C 142.729 5.200,142.048 5.353,142.200 5.600 C 142.411 5.941,140.593 6.232,139.470 6.037 C 139.289 6.006,139.255 6.165,139.394 6.390 C 139.549 6.641,139.094 6.800,138.224 6.800 C 137.441 6.800,136.800 6.980,136.800 7.200 C 136.800 7.420,136.271 7.600,135.624 7.600 C 134.977 7.600,134.336 7.780,134.200 8.000 C 134.064 8.220,133.423 8.400,132.776 8.400 C 132.129 8.400,131.600 8.600,131.600 8.843 C 131.600 9.118,131.214 9.190,130.583 9.032 C 129.930 8.868,129.356 8.987,128.979 9.364 C 128.655 9.688,128.016 9.880,127.557 9.792 C 127.099 9.704,126.286 9.919,125.750 10.270 C 125.214 10.621,124.669 10.803,124.540 10.673 C 124.411 10.544,124.056 10.687,123.752 10.991 C 123.448 11.295,122.165 11.832,120.900 12.184 C 119.635 12.536,117.918 13.174,117.083 13.601 C 116.249 14.028,115.686 14.184,115.833 13.947 C 115.979 13.711,115.657 13.806,115.117 14.160 C 114.578 14.514,113.987 14.667,113.804 14.501 C 113.621 14.336,113.590 14.406,113.734 14.658 C 114.040 15.194,112.925 15.724,112.302 15.339 C 112.051 15.184,111.994 15.266,112.162 15.538 C 112.342 15.830,112.144 16.000,111.624 16.000 C 111.171 16.000,110.800 16.180,110.800 16.400 C 110.800 16.620,110.485 16.806,110.100 16.813 C 109.715 16.819,108.325 17.359,107.010 18.013 C 105.696 18.666,104.391 19.200,104.110 19.200 C 103.830 19.200,103.600 19.380,103.600 19.600 C 103.600 19.820,103.227 20.000,102.771 20.000 C 102.316 20.000,101.671 20.272,101.339 20.604 C 101.007 20.936,100.542 21.088,100.306 20.942 C 100.051 20.785,99.993 20.864,100.162 21.138 C 100.331 21.412,100.193 21.600,99.824 21.600 C 99.481 21.600,99.200 21.751,99.200 21.936 C 99.200 22.121,98.480 22.510,97.600 22.800 C 96.720 23.090,96.000 23.479,96.000 23.664 C 96.000 23.849,95.550 24.000,95.000 24.000 C 94.450 24.000,94.000 24.162,94.000 24.361 C 94.000 24.559,93.460 24.910,92.800 25.140 C 92.140 25.370,91.600 25.742,91.600 25.967 C 91.600 26.191,91.330 26.271,91.000 26.145 C 90.670 26.018,90.400 26.114,90.400 26.357 C 90.400 26.601,90.119 26.800,89.776 26.800 C 89.433 26.800,89.251 26.960,89.372 27.155 C 89.554 27.450,89.078 27.717,87.600 28.151 C 87.490 28.183,86.568 28.785,85.551 29.489 C 84.534 30.193,83.619 30.685,83.517 30.584 C 83.416 30.482,82.846 30.946,82.251 31.614 C 81.656 32.282,80.996 32.721,80.784 32.590 C 80.573 32.460,80.400 32.543,80.400 32.776 C 80.400 33.009,80.130 33.200,79.800 33.200 C 79.470 33.200,79.200 33.380,79.200 33.600 C 79.200 33.820,78.829 34.000,78.376 34.000 C 77.923 34.000,77.664 34.180,77.800 34.400 C 78.022 34.760,77.497 34.973,76.700 34.847 C 76.535 34.821,76.400 35.070,76.400 35.400 C 76.400 35.730,76.228 36.000,76.018 36.000 C 75.808 36.000,75.213 36.405,74.696 36.900 C 73.781 37.776,72.854 38.387,70.800 39.468 C 70.250 39.758,69.963 39.996,70.162 39.998 C 70.622 40.001,68.338 41.983,67.800 42.047 C 67.580 42.073,67.252 42.069,67.070 42.037 C 66.889 42.006,66.855 42.165,66.994 42.390 C 67.133 42.616,67.028 42.800,66.759 42.800 C 66.491 42.800,65.805 43.306,65.236 43.925 C 64.666 44.544,63.570 45.482,62.800 46.011 C 62.030 46.539,60.621 47.743,59.668 48.686 C 58.716 49.628,57.760 50.400,57.545 50.400 C 57.329 50.400,57.264 50.580,57.400 50.800 C 57.536 51.020,57.454 51.200,57.217 51.200 C 56.981 51.200,55.183 52.820,53.222 54.800 C 51.260 56.780,49.492 58.400,49.292 58.400 C 49.092 58.400,48.719 58.860,48.463 59.423 C 48.184 60.033,47.811 60.331,47.536 60.161 C 47.259 59.990,47.185 60.052,47.349 60.318 C 47.500 60.561,47.252 60.958,46.800 61.200 C 46.348 61.442,46.075 61.798,46.195 61.991 C 46.314 62.184,46.063 62.453,45.637 62.588 C 45.211 62.723,44.444 63.384,43.932 64.057 C 43.419 64.730,42.595 65.704,42.100 66.222 C 41.605 66.740,41.200 67.357,41.200 67.592 C 41.200 67.828,40.435 68.799,39.500 69.751 C 38.565 70.702,37.530 71.887,37.200 72.384 C 36.870 72.882,36.106 73.827,35.502 74.485 C 34.897 75.143,34.490 75.823,34.597 75.995 C 34.704 76.168,34.433 76.403,33.996 76.517 C 33.558 76.631,33.200 77.023,33.200 77.386 C 33.200 77.750,33.020 77.936,32.800 77.800 C 32.580 77.664,32.400 77.923,32.400 78.376 C 32.400 78.829,32.220 79.200,32.000 79.200 C 31.780 79.200,31.600 79.393,31.600 79.629 C 31.600 80.242,30.546 81.213,30.226 80.893 C 30.079 80.745,30.076 80.934,30.222 81.312 C 30.367 81.690,30.307 82.000,30.089 82.000 C 29.872 82.000,29.594 82.378,29.474 82.840 C 29.353 83.302,29.064 83.563,28.832 83.419 C 28.566 83.255,28.507 83.413,28.673 83.845 C 28.851 84.311,28.785 84.438,28.468 84.242 C 28.186 84.067,28.000 84.205,28.000 84.589 C 28.000 84.939,27.750 85.321,27.444 85.438 C 27.123 85.562,26.974 85.978,27.091 86.426 C 27.232 86.964,27.089 87.200,26.623 87.200 C 26.254 87.200,26.064 87.380,26.200 87.600 C 26.336 87.820,26.246 88.000,26.000 88.000 C 25.754 88.000,25.664 88.180,25.800 88.400 C 25.936 88.620,25.869 88.800,25.651 88.800 C 25.432 88.800,25.134 89.205,24.986 89.700 C 24.839 90.195,24.197 91.264,23.559 92.077 C 22.922 92.889,22.394 93.789,22.387 94.077 C 22.369 94.846,21.369 96.035,21.027 95.694 C 20.866 95.532,20.770 95.580,20.814 95.800 C 21.002 96.733,20.770 97.629,20.400 97.400 C 20.173 97.260,20.000 97.596,20.000 98.176 C 20.000 98.739,19.842 99.200,19.649 99.200 C 19.455 99.200,19.060 99.785,18.771 100.500 C 18.482 101.215,18.135 101.890,18.000 102.000 C 17.650 102.286,16.000 105.912,16.000 106.396 C 16.000 106.618,15.820 106.800,15.600 106.800 C 15.380 106.800,15.200 107.062,15.200 107.382 C 15.200 107.703,14.657 108.885,13.994 110.009 C 13.331 111.134,13.016 111.926,13.294 111.768 C 13.699 111.540,13.700 111.590,13.300 112.021 C 13.025 112.318,12.800 112.895,12.800 113.304 C 12.800 113.769,12.625 113.939,12.332 113.758 C 12.019 113.565,11.947 113.685,12.115 114.123 C 12.253 114.483,12.149 115.007,11.883 115.288 C 11.617 115.570,11.337 116.160,11.260 116.600 C 11.183 117.040,11.003 117.490,10.860 117.600 C 10.717 117.710,10.582 118.025,10.560 118.300 C 10.435 119.865,10.366 120.026,9.938 119.762 C 9.684 119.605,9.573 119.639,9.691 119.838 C 9.809 120.037,9.721 120.650,9.495 121.200 C 9.268 121.750,9.122 122.605,9.170 123.100 C 9.218 123.595,9.064 124.000,8.829 124.000 C 8.593 124.000,8.400 124.439,8.400 124.976 C 8.400 125.513,8.220 126.064,8.000 126.200 C 7.780 126.336,7.600 126.977,7.600 127.624 C 7.600 128.271,7.420 128.800,7.200 128.800 C 6.980 128.800,6.800 129.250,6.800 129.800 C 6.800 130.350,6.620 130.800,6.400 130.800 C 6.180 130.800,5.997 131.565,5.994 132.500 C 5.989 133.745,5.884 134.039,5.600 133.600 C 5.316 133.160,5.211 133.447,5.206 134.676 C 5.203 135.598,5.020 136.464,4.800 136.600 C 4.580 136.736,4.400 137.456,4.400 138.200 C 4.400 138.944,4.220 139.664,4.000 139.800 C 3.780 139.936,3.600 140.767,3.600 141.647 C 3.600 142.527,3.455 143.157,3.277 143.047 C 3.099 142.938,2.909 143.597,2.855 144.514 C 2.801 145.430,2.566 146.297,2.333 146.441 C 2.058 146.611,2.101 146.773,2.455 146.902 C 2.892 147.061,2.901 147.205,2.500 147.630 C 2.225 147.921,2.000 148.923,2.000 149.856 C 2.000 150.789,1.820 151.664,1.600 151.800 C 1.380 151.936,1.200 153.016,1.200 154.200 C 1.200 155.384,1.046 156.448,0.859 156.564 C 0.349 156.879,0.194 161.666,0.256 175.200 C 0.317 188.405,0.947 197.316,2.405 205.600 C 2.618 206.810,2.970 208.880,3.188 210.200 C 3.405 211.520,3.777 213.410,4.014 214.400 C 4.250 215.390,4.600 216.920,4.792 217.800 C 4.983 218.680,5.321 220.030,5.543 220.800 C 5.765 221.570,6.058 222.650,6.195 223.200 C 6.793 225.604,7.313 227.458,7.598 228.200 C 7.767 228.640,8.320 230.350,8.827 232.000 C 9.334 233.650,9.870 235.180,10.019 235.400 C 10.168 235.620,10.418 236.340,10.576 237.000 C 10.733 237.660,11.091 238.740,11.370 239.400 C 11.650 240.060,12.744 242.670,13.801 245.200 C 19.118 257.931,30.484 277.246,35.886 282.735 C 36.175 283.029,36.904 283.929,37.506 284.735 C 38.108 285.541,38.828 286.441,39.106 286.735 C 39.384 287.029,40.104 287.919,40.706 288.714 C 44.638 293.907,58.462 307.587,65.246 313.000 C 66.625 314.100,68.484 315.640,69.377 316.421 C 72.543 319.193,84.061 327.262,88.190 329.601 C 88.966 330.041,90.275 330.795,91.100 331.278 C 94.961 333.539,103.453 337.995,103.905 337.997 C 104.183 337.999,104.723 338.173,105.105 338.384 C 105.487 338.595,107.060 339.333,108.600 340.024 C 110.140 340.715,112.210 341.645,113.200 342.091 C 114.190 342.537,115.360 343.034,115.800 343.197 C 116.848 343.585,118.313 344.172,119.800 344.800 C 121.945 345.706,122.575 345.940,124.200 346.429 C 125.080 346.694,126.160 347.054,126.600 347.229 C 127.823 347.717,134.808 349.902,136.605 350.360 C 138.863 350.935,143.810 352.268,146.400 352.999 C 153.279 354.942,168.519 357.135,181.400 358.037 C 195.295 359.010,217.850 357.400,232.400 354.397 C 233.390 354.193,235.100 353.853,236.200 353.641 C 242.064 352.514,244.480 351.979,247.200 351.202 C 248.850 350.731,250.830 350.202,251.600 350.025 C 253.491 349.592,259.232 347.676,260.095 347.191 C 260.477 346.976,261.064 346.800,261.400 346.800 C 261.736 346.800,262.323 346.634,262.705 346.432 C 263.087 346.230,264.480 345.672,265.800 345.193 C 269.003 344.031,269.497 343.836,271.600 342.904 C 272.590 342.465,274.390 341.685,275.600 341.170 C 277.656 340.296,287.561 335.308,291.600 333.113 C 298.180 329.537,305.786 324.645,311.901 320.055 C 313.606 318.775,315.767 317.246,316.705 316.656 C 318.553 315.494,318.490 315.542,322.600 312.131 C 328.252 307.440,339.859 296.090,342.896 292.286 C 343.613 291.387,344.924 289.830,345.808 288.826 C 347.732 286.642,350.553 282.952,352.403 280.200 C 353.142 279.100,353.865 278.110,354.009 278.000 C 354.400 277.702,360.800 268.064,360.800 267.774 C 360.800 267.636,361.154 267.027,361.586 266.420 C 363.176 264.186,370.271 250.398,371.991 246.200 C 372.705 244.457,373.715 242.142,374.244 241.039 C 374.550 240.400,374.800 239.632,374.800 239.333 C 374.800 239.034,374.959 238.477,375.153 238.095 C 375.348 237.713,375.729 236.860,376.000 236.200 C 376.271 235.540,376.652 234.687,376.847 234.305 C 377.041 233.923,377.200 233.169,377.200 232.629 C 377.200 232.089,377.380 231.536,377.600 231.400 C 377.820 231.264,378.000 230.724,378.000 230.200 C 378.000 229.676,378.159 229.149,378.354 229.029 C 378.549 228.908,378.804 228.313,378.921 227.705 C 379.038 227.097,379.315 225.970,379.535 225.200 C 381.459 218.484,383.435 208.747,384.364 201.400 C 384.586 199.640,384.965 196.760,385.206 195.000 C 385.447 193.240,385.743 189.820,385.865 187.400 C 385.986 184.980,386.323 182.268,386.614 181.372 C 387.101 179.871,387.112 175.271,386.637 171.800 C 386.546 171.140,386.419 168.318,386.353 165.528 C 386.287 162.739,386.090 160.544,385.916 160.652 C 385.742 160.759,385.600 159.677,385.600 158.247 C 385.600 156.817,385.420 155.536,385.200 155.400 C 384.980 155.264,384.800 154.162,384.800 152.950 C 384.800 151.739,384.617 150.405,384.393 149.987 C 384.169 149.569,383.965 148.304,383.940 147.176 C 383.911 145.877,383.769 145.322,383.553 145.662 C 383.337 146.003,383.210 145.513,383.206 144.324 C 383.203 143.292,383.020 142.336,382.800 142.200 C 382.580 142.064,382.400 141.344,382.400 140.600 C 382.400 139.856,382.220 139.136,382.000 139.000 C 381.780 138.864,381.600 138.281,381.600 137.705 C 381.600 136.634,380.980 134.351,380.351 133.105 C 380.158 132.723,380.000 132.037,380.000 131.579 C 380.000 131.122,379.819 130.409,379.597 129.995 C 379.376 129.581,379.158 128.796,379.112 128.250 C 379.067 127.704,378.888 127.345,378.715 127.452 C 378.440 127.622,378.201 126.002,378.363 125.070 C 378.394 124.889,378.235 124.855,378.010 124.994 C 377.771 125.142,377.600 124.821,377.600 124.224 C 377.600 123.661,377.420 123.200,377.200 123.200 C 376.980 123.200,376.800 122.761,376.800 122.224 C 376.800 121.687,376.620 121.136,376.400 121.000 C 376.180 120.864,376.000 120.324,376.000 119.800 C 376.000 119.276,375.820 118.736,375.600 118.600 C 375.380 118.464,375.200 117.980,375.200 117.524 C 375.200 117.068,374.827 116.091,374.372 115.355 C 373.916 114.618,373.645 113.850,373.770 113.649 C 373.894 113.448,373.725 113.180,373.394 113.053 C 373.063 112.926,372.816 112.682,372.844 112.511 C 372.872 112.340,372.851 112.065,372.797 111.900 C 372.582 111.236,372.497 110.759,372.444 109.900 C 372.398 109.167,372.316 109.111,372.000 109.600 C 371.696 110.070,371.611 109.969,371.606 109.133 C 371.603 108.547,371.412 108.004,371.182 107.927 C 370.952 107.851,370.735 107.398,370.699 106.922 C 370.663 106.445,370.491 106.144,370.317 106.251 C 370.143 106.359,370.000 105.957,370.000 105.357 C 370.000 104.757,369.884 104.383,369.741 104.525 C 369.473 104.793,367.515 100.969,367.484 100.118 C 367.475 99.852,367.317 99.728,367.133 99.841 C 366.829 100.029,366.661 99.116,366.900 98.572 C 366.955 98.446,366.705 98.179,366.344 97.977 C 365.983 97.775,365.118 96.428,364.422 94.984 C 363.725 93.539,362.895 92.258,362.578 92.136 C 362.260 92.014,362.000 91.651,362.000 91.329 C 362.000 91.006,361.728 90.471,361.396 90.139 C 361.064 89.807,360.895 89.370,361.020 89.168 C 361.145 88.965,361.057 88.800,360.824 88.800 C 360.591 88.800,360.400 88.557,360.400 88.259 C 360.400 87.962,359.905 87.197,359.300 86.559 C 358.695 85.922,357.979 84.905,357.709 84.300 C 357.438 83.695,357.014 83.200,356.766 83.200 C 356.518 83.200,356.422 82.921,356.553 82.579 C 356.689 82.223,356.622 82.063,356.395 82.203 C 356.178 82.337,356.000 82.176,356.000 81.844 C 356.000 81.513,355.553 80.759,355.007 80.170 C 354.462 79.581,354.129 78.914,354.269 78.688 C 354.409 78.462,354.361 78.375,354.162 78.496 C 353.963 78.617,353.568 78.465,353.284 78.158 C 352.966 77.814,352.933 77.600,353.198 77.600 C 353.434 77.600,353.081 77.066,352.414 76.413 C 351.746 75.761,351.200 75.030,351.200 74.790 C 351.200 74.549,351.047 74.447,350.860 74.563 C 350.673 74.678,350.268 74.286,349.960 73.690 C 349.652 73.095,348.905 72.117,348.300 71.518 C 347.695 70.918,347.200 70.140,347.200 69.790 C 347.200 69.439,347.020 69.264,346.800 69.400 C 346.580 69.536,346.400 69.478,346.400 69.272 C 346.400 69.065,345.637 68.110,344.703 67.148 C 343.770 66.187,343.064 65.350,343.133 65.290 C 343.203 65.230,343.171 64.960,343.062 64.690 C 342.915 64.328,342.855 64.338,342.832 64.729 C 342.787 65.475,341.799 64.458,341.426 63.281 C 341.272 62.797,340.878 62.400,340.549 62.400 C 340.221 62.400,340.064 62.220,340.200 62.000 C 340.336 61.780,340.156 61.600,339.800 61.600 C 339.444 61.600,339.225 61.465,339.313 61.300 C 339.523 60.907,338.137 59.596,337.833 59.900 C 337.705 60.028,337.600 59.934,337.600 59.691 C 337.600 59.113,331.310 52.823,331.021 53.112 C 330.900 53.234,330.800 53.110,330.800 52.838 C 330.800 52.320,329.843 51.200,329.400 51.200 C 328.937 51.200,328.032 50.101,328.286 49.848 C 328.422 49.711,328.098 49.597,327.567 49.594 C 326.923 49.590,326.770 49.480,327.108 49.266 C 327.472 49.034,327.302 48.784,326.508 48.379 C 325.898 48.068,324.871 47.316,324.224 46.707 C 323.577 46.098,322.892 45.600,322.700 45.600 C 322.509 45.600,322.456 45.432,322.583 45.228 C 322.709 45.023,322.630 44.742,322.407 44.604 C 322.183 44.466,321.994 44.588,321.986 44.876 C 321.978 45.164,321.723 44.950,321.418 44.400 C 321.114 43.850,320.703 43.400,320.506 43.400 C 320.309 43.400,319.664 42.879,319.074 42.242 C 318.483 41.604,318.000 41.209,318.000 41.362 C 318.000 41.606,315.331 39.783,314.800 39.176 C 314.690 39.050,313.700 38.338,312.600 37.593 C 311.500 36.848,310.362 36.004,310.071 35.719 C 309.781 35.434,309.389 35.200,309.200 35.200 C 309.011 35.200,308.542 34.885,308.157 34.500 C 307.772 34.115,307.354 33.797,307.229 33.793 C 307.103 33.790,306.589 33.430,306.087 32.993 C 305.585 32.557,305.040 32.200,304.877 32.200 C 304.306 32.200,302.430 30.503,302.701 30.232 C 302.852 30.081,302.711 30.059,302.388 30.183 C 302.063 30.307,301.307 29.951,300.700 29.388 C 300.095 28.827,299.594 28.510,299.587 28.684 C 299.580 28.858,299.322 28.667,299.014 28.260 C 298.706 27.853,298.260 27.639,298.024 27.785 C 297.788 27.931,297.491 27.781,297.364 27.451 C 297.237 27.121,296.887 26.945,296.585 27.061 C 296.283 27.177,295.571 26.808,295.004 26.240 C 294.436 25.673,293.485 25.086,292.890 24.937 C 292.295 24.787,291.567 24.424,291.272 24.129 C 290.977 23.834,290.570 23.695,290.368 23.820 C 290.165 23.945,290.000 23.857,290.000 23.624 C 290.000 23.391,289.807 23.200,289.571 23.200 C 289.336 23.200,288.871 22.928,288.539 22.596 C 288.207 22.264,287.770 22.095,287.568 22.220 C 287.365 22.345,287.200 22.257,287.200 22.024 C 287.200 21.791,286.919 21.600,286.576 21.600 C 286.207 21.600,286.069 21.412,286.238 21.138 C 286.407 20.864,286.349 20.785,286.094 20.942 C 285.858 21.088,285.393 20.936,285.061 20.604 C 284.729 20.272,284.174 20.000,283.829 20.000 C 283.483 20.000,283.200 19.859,283.200 19.687 C 283.200 19.515,282.738 19.336,282.174 19.290 C 281.609 19.243,280.875 18.932,280.541 18.599 C 280.208 18.265,279.770 18.095,279.568 18.220 C 279.365 18.345,279.200 18.257,279.200 18.024 C 279.200 17.791,278.840 17.600,278.400 17.600 C 277.960 17.600,277.600 17.420,277.600 17.200 C 277.600 16.980,277.240 16.800,276.800 16.800 C 276.360 16.800,276.000 16.620,276.000 16.400 C 276.000 16.180,275.561 16.000,275.024 16.000 C 274.487 16.000,273.936 15.820,273.800 15.600 C 273.664 15.380,273.193 15.200,272.753 15.200 C 272.313 15.200,272.064 15.020,272.200 14.800 C 272.336 14.580,272.107 14.400,271.690 14.400 C 271.274 14.400,270.809 14.275,270.656 14.123 C 270.504 13.971,270.034 13.793,269.613 13.729 C 269.191 13.665,268.192 13.245,267.393 12.796 C 266.594 12.347,266.079 12.210,266.247 12.490 C 266.434 12.801,266.266 12.766,265.815 12.400 C 265.409 12.070,265.015 11.845,264.939 11.900 C 264.556 12.176,263.984 11.949,264.197 11.605 C 264.338 11.377,264.176 11.311,263.818 11.449 C 263.475 11.580,262.740 11.391,262.186 11.027 C 261.631 10.664,261.002 10.475,260.789 10.607 C 260.575 10.739,260.400 10.646,260.400 10.400 C 260.400 10.154,260.220 10.064,260.000 10.200 C 259.780 10.336,259.600 10.246,259.600 10.000 C 259.600 9.754,259.452 9.644,259.271 9.756 C 259.091 9.868,258.433 9.695,257.811 9.372 C 257.188 9.049,256.361 8.885,255.973 9.009 C 255.585 9.132,255.152 9.045,255.010 8.816 C 254.869 8.587,254.234 8.400,253.600 8.400 C 252.966 8.400,252.336 8.220,252.200 8.000 C 252.064 7.780,251.423 7.600,250.776 7.600 C 250.129 7.600,249.600 7.420,249.600 7.200 C 249.600 6.980,248.970 6.800,248.200 6.800 C 247.430 6.800,246.800 6.620,246.800 6.400 C 246.800 6.180,246.181 6.000,245.424 6.000 C 244.667 6.000,243.936 5.820,243.800 5.600 C 243.664 5.380,242.854 5.200,242.000 5.200 C 241.146 5.200,240.351 5.044,240.233 4.854 C 240.116 4.664,239.250 4.380,238.310 4.224 C 237.369 4.068,235.700 3.763,234.600 3.547 C 233.500 3.330,231.790 3.056,230.800 2.938 C 229.810 2.819,228.829 2.560,228.620 2.361 C 228.411 2.163,227.387 2.000,226.344 2.000 C 225.301 2.000,224.354 1.850,224.241 1.666 C 224.128 1.483,222.959 1.294,221.645 1.246 C 220.331 1.199,218.658 0.966,217.928 0.730 C 216.262 0.190,176.872 -0.057,172.000 0.441 M209.800 41.966 C 215.999 42.587,224.593 43.977,229.400 45.136 C 230.280 45.348,231.810 45.707,232.800 45.935 C 234.501 46.326,235.560 46.611,239.100 47.633 C 239.925 47.871,241.097 48.162,241.705 48.279 C 242.313 48.396,242.908 48.651,243.029 48.846 C 243.149 49.041,243.676 49.200,244.200 49.200 C 244.724 49.200,245.264 49.380,245.400 49.600 C 245.536 49.820,245.952 50.003,246.324 50.006 C 246.937 50.012,250.433 51.301,257.600 54.164 C 262.507 56.124,273.794 62.008,278.128 64.865 C 279.409 65.709,280.554 66.400,280.673 66.400 C 281.591 66.400,294.086 75.855,299.200 80.420 C 310.605 90.600,319.872 101.913,327.853 115.400 C 330.153 119.287,334.757 128.903,336.280 133.000 C 336.607 133.880,337.028 134.960,337.216 135.400 C 337.678 136.484,339.778 142.996,340.343 145.100 C 340.783 146.738,341.182 148.308,341.970 151.500 C 342.464 153.503,343.088 156.823,343.566 160.000 C 343.781 161.430,344.067 163.320,344.200 164.200 C 346.169 177.182,344.458 199.286,340.407 213.200 C 339.926 214.850,339.437 216.697,339.320 217.305 C 339.203 217.913,338.949 218.508,338.754 218.629 C 338.559 218.749,338.400 219.199,338.400 219.629 C 338.400 220.059,338.234 220.723,338.032 221.105 C 337.830 221.487,337.269 222.880,336.786 224.200 C 336.303 225.520,335.569 227.363,335.154 228.296 C 334.739 229.228,334.400 230.069,334.400 230.164 C 334.400 230.520,329.939 239.521,328.336 242.400 C 326.927 244.930,320.221 255.263,319.129 256.586 C 318.941 256.814,317.222 258.962,315.309 261.360 C 309.298 268.893,300.955 277.117,292.600 283.745 C 291.280 284.793,289.891 285.901,289.513 286.209 C 288.568 286.981,276.859 294.800,276.650 294.800 C 276.558 294.800,275.270 295.536,273.789 296.436 C 270.636 298.352,259.523 303.767,255.700 305.251 C 252.839 306.361,250.667 307.259,249.905 307.647 C 249.523 307.841,248.884 308.000,248.485 308.000 C 248.086 308.000,247.589 308.149,247.380 308.330 C 247.171 308.512,246.190 308.893,245.200 309.176 C 244.210 309.459,243.040 309.836,242.600 310.012 C 242.160 310.189,241.350 310.450,240.800 310.594 C 240.250 310.737,239.260 311.007,238.600 311.193 C 215.735 317.658,189.573 319.096,165.800 315.193 C 157.730 313.868,147.984 311.562,143.800 309.988 C 143.360 309.823,142.100 309.411,141.000 309.074 C 138.470 308.299,132.934 306.275,130.931 305.392 C 130.089 305.022,129.040 304.577,128.600 304.405 C 123.679 302.478,111.695 296.184,107.122 293.124 C 105.869 292.286,104.669 291.600,104.455 291.600 C 104.242 291.600,104.007 291.465,103.933 291.300 C 103.860 291.135,102.360 290.020,100.600 288.822 C 91.570 282.677,77.404 269.639,71.239 261.800 C 69.855 260.040,68.406 258.224,68.020 257.764 C 67.401 257.028,64.560 253.047,63.370 251.249 C 61.950 249.103,59.847 245.753,59.178 244.573 C 58.750 243.818,58.016 242.525,57.546 241.700 C 55.697 238.450,52.042 230.806,50.615 227.200 C 49.787 225.110,48.962 223.040,48.782 222.600 C 48.601 222.160,48.236 221.080,47.971 220.200 C 47.706 219.320,47.349 218.240,47.178 217.800 C 47.007 217.360,46.750 216.550,46.606 216.000 C 46.463 215.450,46.166 214.370,45.946 213.600 C 45.727 212.830,45.379 211.525,45.173 210.700 C 44.968 209.875,44.609 208.435,44.375 207.500 C 43.558 204.234,42.668 198.973,41.921 193.000 C 41.276 187.847,41.274 170.549,41.917 165.600 C 42.997 157.294,43.904 152.375,45.200 147.800 C 45.449 146.920,45.800 145.570,45.979 144.800 C 46.302 143.415,48.006 138.256,49.547 134.000 C 51.395 128.896,55.380 120.602,58.677 115.000 C 59.195 114.120,59.918 112.815,60.283 112.100 C 60.649 111.385,61.095 110.800,61.274 110.800 C 61.453 110.800,61.600 110.607,61.600 110.372 C 61.600 109.484,68.020 100.674,72.657 95.200 C 78.489 88.314,88.613 78.537,93.357 75.209 C 93.821 74.884,94.617 74.254,95.126 73.809 C 97.700 71.560,106.768 65.525,113.000 61.914 C 119.395 58.208,134.579 51.516,141.000 49.573 C 141.880 49.307,142.960 48.955,143.400 48.790 C 143.840 48.626,145.010 48.270,146.000 47.999 C 146.990 47.729,148.250 47.369,148.800 47.200 C 151.276 46.439,155.531 45.392,158.600 44.787 C 159.920 44.527,161.522 44.153,162.160 43.957 C 162.798 43.761,163.920 43.600,164.654 43.600 C 165.388 43.600,166.756 43.426,167.694 43.213 C 169.516 42.801,173.954 42.220,179.800 41.630 C 184.182 41.188,204.275 41.413,209.800 41.966 M183.600 62.632 C 173.413 63.482,166.545 64.574,158.200 66.670 C 154.389 67.628,153.269 67.925,150.300 68.770 C 148.426 69.302,142.043 71.562,140.400 72.275 C 139.630 72.608,138.640 73.025,138.200 73.200 C 130.356 76.322,111.996 86.603,110.400 88.767 C 110.290 88.917,109.570 89.477,108.800 90.014 C 102.136 94.655,92.022 104.560,85.941 112.400 C 79.234 121.048,74.818 128.622,70.202 139.400 C 63.932 154.037,60.711 178.154,63.122 192.400 C 65.270 205.084,66.506 209.796,70.101 219.000 C 71.307 222.089,75.899 231.592,76.383 232.000 C 76.513 232.110,77.065 233.057,77.610 234.104 C 82.073 242.684,94.335 256.953,104.000 264.811 C 105.210 265.795,106.290 266.698,106.400 266.819 C 107.368 267.877,117.226 274.729,120.114 276.352 C 120.871 276.777,121.920 277.367,122.445 277.662 C 122.970 277.958,123.490 278.303,123.600 278.429 C 123.983 278.867,136.223 284.720,139.400 285.985 C 151.272 290.711,163.653 293.848,175.720 295.187 C 177.656 295.402,179.409 295.682,179.615 295.809 C 180.313 296.240,205.519 296.064,208.694 295.606 C 220.877 293.848,224.950 293.035,233.000 290.752 C 240.388 288.656,251.629 284.205,258.172 280.784 C 265.077 277.174,265.147 277.129,264.892 276.444 C 264.599 275.657,260.196 268.216,259.138 266.720 L 258.375 265.641 252.087 268.784 C 248.629 270.512,245.170 272.192,244.400 272.516 C 243.630 272.840,242.370 273.375,241.600 273.706 C 240.830 274.036,239.570 274.525,238.800 274.793 C 238.030 275.061,237.040 275.431,236.600 275.614 C 235.554 276.050,231.480 277.359,229.200 277.993 C 228.210 278.268,226.950 278.640,226.400 278.820 C 209.418 284.385,177.859 284.067,157.600 278.128 C 155.730 277.580,153.840 277.041,153.400 276.932 C 152.960 276.823,152.240 276.577,151.800 276.387 C 151.360 276.196,150.100 275.748,149.000 275.391 C 147.900 275.034,146.370 274.467,145.600 274.130 C 144.830 273.794,143.840 273.380,143.400 273.210 C 135.561 270.187,123.027 262.989,116.400 257.705 C 115.190 256.741,113.480 255.377,112.600 254.676 C 107.239 250.402,101.252 244.163,94.999 236.335 C 91.223 231.607,84.722 220.073,82.524 214.200 C 82.195 213.320,81.767 212.240,81.574 211.800 C 81.165 210.868,78.921 203.648,78.404 201.600 C 77.435 197.762,77.002 195.258,76.017 187.800 C 74.913 179.438,75.894 167.064,78.458 157.000 C 79.729 152.014,80.100 150.747,80.802 149.000 C 80.979 148.560,81.708 146.670,82.423 144.800 C 86.834 133.257,96.974 118.233,106.048 109.799 C 111.913 104.348,121.320 96.822,123.200 96.078 C 123.530 95.947,123.980 95.693,124.200 95.512 C 126.537 93.594,137.005 88.078,142.600 85.816 C 144.580 85.015,146.560 84.197,147.000 83.998 C 147.440 83.799,149.600 83.065,151.800 82.367 C 154.000 81.669,156.160 80.954,156.600 80.779 C 157.040 80.604,157.850 80.371,158.400 80.262 C 159.311 80.082,162.842 79.259,166.400 78.398 C 183.928 74.158,209.075 74.963,228.100 80.373 C 228.925 80.608,230.185 80.962,230.900 81.159 C 263.791 90.253,291.958 115.224,304.491 146.400 C 304.712 146.950,305.052 147.713,305.247 148.095 C 305.441 148.477,305.600 149.141,305.600 149.571 C 305.600 150.001,305.759 150.451,305.954 150.571 C 306.149 150.692,306.404 151.287,306.521 151.895 C 306.638 152.503,306.941 153.720,307.194 154.600 C 308.981 160.822,309.951 166.841,310.258 173.600 C 310.398 176.676,310.661 178.713,310.943 178.894 C 311.492 179.247,322.466 179.303,323.367 178.957 C 325.617 178.094,321.651 154.326,317.301 142.600 C 315.324 137.270,311.424 128.973,309.592 126.200 C 309.010 125.320,308.431 124.330,308.305 124.000 C 307.783 122.638,301.160 113.379,297.957 109.534 C 292.588 103.088,283.422 94.209,279.076 91.244 C 278.594 90.915,278.110 90.537,278.000 90.404 C 277.890 90.271,277.170 89.729,276.400 89.200 C 275.630 88.671,274.910 88.133,274.800 88.004 C 274.399 87.534,267.703 83.258,264.000 81.107 C 258.192 77.733,252.321 74.860,246.200 72.396 C 241.463 70.490,233.293 67.867,228.200 66.619 C 222.509 65.224,220.043 64.777,210.200 63.359 C 206.394 62.811,187.607 62.297,183.600 62.632 M297.863 226.312 C 295.187 230.579,292.568 234.577,292.195 234.964 C 291.963 235.204,291.338 236.030,290.806 236.800 C 290.274 237.570,289.737 238.290,289.614 238.400 C 289.490 238.510,288.588 239.590,287.608 240.800 C 286.629 242.010,284.381 244.495,282.614 246.321 C 280.846 248.148,279.339 249.815,279.265 250.026 C 279.156 250.338,281.665 253.234,287.453 259.474 C 288.048 260.117,297.370 250.580,300.386 246.243 C 300.708 245.779,301.116 245.220,301.292 245.000 C 303.192 242.624,308.400 234.989,308.400 234.580 C 308.400 234.439,308.731 233.846,309.135 233.262 C 310.601 231.143,310.536 230.972,307.674 229.439 C 306.203 228.651,303.920 227.409,302.600 226.680 C 298.887 224.628,298.917 224.630,297.863 226.312 " stroke="none" fill="#fccb4b" fill-rule="evenodd"></path><path id="path2" d="M386.667 187.067 C 386.520 187.213,386.400 188.526,386.400 189.984 C 386.400 194.259,383.779 211.058,381.966 218.400 C 381.505 220.270,381.034 222.387,380.919 223.104 C 380.805 223.821,380.551 224.506,380.356 224.627 C 380.160 224.748,380.000 225.289,380.000 225.829 C 380.000 226.369,379.840 227.123,379.645 227.505 C 379.449 227.887,378.721 230.000,378.027 232.200 C 376.811 236.053,376.311 237.406,375.553 238.895 C 375.359 239.277,375.200 239.845,375.200 240.157 C 375.200 240.469,374.814 241.506,374.343 242.462 C 373.872 243.418,373.332 244.605,373.143 245.100 C 372.423 246.987,371.961 247.986,368.836 254.400 C 367.068 258.030,365.072 261.900,364.401 263.000 C 363.731 264.100,363.066 265.270,362.924 265.600 C 362.782 265.930,362.156 266.952,361.533 267.872 C 360.910 268.792,360.400 269.737,360.400 269.972 C 360.400 270.207,360.220 270.400,360.000 270.400 C 359.780 270.400,359.600 270.670,359.600 271.000 C 359.600 271.330,359.420 271.600,359.200 271.600 C 358.980 271.600,358.800 271.855,358.800 272.167 C 358.800 272.478,358.665 272.793,358.500 272.867 C 358.335 272.940,357.154 274.530,355.876 276.400 C 354.598 278.270,353.197 280.257,352.762 280.815 C 351.860 281.972,351.533 321.693,352.418 322.578 C 352.849 323.009,355.197 320.607,355.199 319.733 C 355.200 319.477,355.351 319.207,355.536 319.133 C 356.065 318.924,358.800 314.867,358.800 314.292 C 358.800 314.009,359.160 313.517,359.600 313.200 C 360.040 312.883,360.400 312.303,360.400 311.912 C 360.400 311.520,360.580 311.200,360.800 311.200 C 361.020 311.200,361.200 310.906,361.200 310.547 C 361.200 310.188,361.529 309.603,361.930 309.247 C 362.332 308.891,362.916 308.015,363.228 307.300 C 363.540 306.585,363.931 306.000,364.098 306.000 C 364.264 306.000,364.400 305.730,364.400 305.400 C 364.400 305.070,364.580 304.800,364.800 304.800 C 365.020 304.800,365.200 304.530,365.200 304.200 C 365.200 303.870,365.380 303.600,365.600 303.600 C 365.820 303.600,366.000 303.240,366.000 302.800 C 366.000 302.360,366.180 302.000,366.400 302.000 C 366.620 302.000,366.800 301.640,366.800 301.200 C 366.800 300.760,366.980 300.400,367.200 300.400 C 367.420 300.400,367.600 300.040,367.600 299.600 C 367.600 299.160,367.780 298.800,368.000 298.800 C 368.220 298.800,368.400 298.440,368.400 298.000 C 368.400 297.560,368.580 297.200,368.800 297.200 C 369.020 297.200,369.200 296.840,369.200 296.400 C 369.200 295.960,369.380 295.600,369.600 295.600 C 369.820 295.600,370.000 295.240,370.000 294.800 C 370.000 294.360,370.180 294.000,370.400 294.000 C 370.620 294.000,370.800 293.640,370.800 293.200 C 370.800 292.760,370.980 292.400,371.200 292.400 C 371.420 292.400,371.600 292.040,371.600 291.600 C 371.600 291.160,371.780 290.800,372.000 290.800 C 372.220 290.800,372.400 290.528,372.400 290.195 C 372.400 289.862,372.565 289.277,372.767 288.895 C 373.738 287.059,374.764 284.399,375.013 283.071 C 375.165 282.262,375.449 281.600,375.645 281.600 C 375.840 281.600,376.000 281.060,376.000 280.400 C 376.000 279.740,376.180 279.200,376.400 279.200 C 376.620 279.200,376.800 278.660,376.800 278.000 C 376.800 277.340,376.980 276.800,377.200 276.800 C 377.420 276.800,377.600 276.440,377.600 276.000 C 377.600 275.560,377.780 275.200,378.000 275.200 C 378.220 275.200,378.400 274.570,378.400 273.800 C 378.400 273.030,378.580 272.400,378.800 272.400 C 379.020 272.400,379.200 271.860,379.200 271.200 C 379.200 270.540,379.380 270.000,379.600 270.000 C 379.820 270.000,380.000 269.460,380.000 268.800 C 380.000 268.140,380.180 267.600,380.400 267.600 C 380.620 267.600,380.800 266.880,380.800 266.000 C 380.800 265.120,380.980 264.400,381.200 264.400 C 381.420 264.400,381.600 263.680,381.600 262.800 C 381.600 261.920,381.780 261.200,382.000 261.200 C 382.220 261.200,382.400 260.379,382.400 259.376 C 382.400 258.373,382.545 257.643,382.723 257.753 C 382.901 257.862,383.090 257.198,383.143 256.276 C 383.197 255.354,383.411 254.540,383.620 254.467 C 383.829 254.393,384.000 253.448,384.000 252.367 C 384.000 251.285,384.180 250.400,384.400 250.400 C 384.622 250.400,384.800 249.341,384.800 248.024 C 384.800 246.717,384.980 245.536,385.200 245.400 C 385.420 245.264,385.600 243.813,385.600 242.176 C 385.600 240.459,385.769 239.200,386.000 239.200 C 386.244 239.200,386.400 237.341,386.400 234.424 C 386.400 231.779,386.573 229.541,386.787 229.408 C 387.141 229.189,387.426 186.800,387.073 186.800 C 386.996 186.800,386.813 186.920,386.667 187.067 M34.800 302.054 C 34.800 315.075,34.658 321.381,34.341 322.438 C 33.904 323.899,33.940 324.023,35.141 325.145 C 35.834 325.792,36.400 326.533,36.400 326.792 C 36.400 327.051,37.120 327.954,38.000 328.800 C 38.880 329.646,39.600 330.537,39.600 330.782 C 39.600 331.027,40.185 331.817,40.900 332.539 C 41.615 333.261,42.829 334.650,43.597 335.626 C 45.838 338.473,57.151 349.600,57.804 349.600 C 58.132 349.600,58.400 349.742,58.400 349.917 C 58.400 350.360,60.783 352.804,62.382 354.000 C 63.117 354.550,64.277 355.520,64.959 356.155 C 69.008 359.925,68.823 360.863,68.704 337.200 L 68.600 316.648 66.400 314.881 C 64.188 313.105,60.316 309.742,56.635 306.400 C 53.652 303.692,47.816 297.754,45.052 294.615 C 43.704 293.084,42.229 291.444,41.775 290.972 C 41.321 290.499,39.716 288.557,38.210 286.656 C 36.703 284.755,35.320 283.200,35.135 283.200 C 34.951 283.200,34.800 291.684,34.800 302.054 M315.000 318.625 C 314.340 319.173,312.180 320.730,310.200 322.086 C 308.220 323.442,306.510 324.652,306.400 324.776 C 306.290 324.900,305.705 325.256,305.100 325.568 C 304.495 325.880,304.000 326.285,304.000 326.468 C 304.000 326.650,303.810 326.800,303.578 326.800 C 303.346 326.800,302.117 327.506,300.847 328.368 C 299.577 329.231,297.922 330.289,297.169 330.719 C 296.416 331.150,294.630 332.176,293.200 333.000 C 291.770 333.824,288.990 335.287,287.021 336.253 C 285.053 337.218,283.298 338.231,283.122 338.504 C 282.945 338.777,282.810 348.227,282.821 359.504 C 282.833 370.782,282.732 380.187,282.597 380.404 C 282.463 380.622,282.543 380.800,282.776 380.800 C 283.009 380.800,283.200 380.620,283.200 380.400 C 283.200 380.180,283.560 380.000,284.000 380.000 C 284.440 380.000,284.800 379.820,284.800 379.600 C 284.800 379.380,285.160 379.200,285.600 379.200 C 286.040 379.200,286.400 379.020,286.400 378.800 C 286.400 378.580,286.760 378.400,287.200 378.400 C 287.640 378.400,288.000 378.220,288.000 378.000 C 288.000 377.780,288.270 377.600,288.600 377.600 C 288.930 377.600,289.200 377.420,289.200 377.200 C 289.200 376.980,289.571 376.800,290.024 376.800 C 290.477 376.800,290.736 376.620,290.600 376.400 C 290.464 376.180,290.633 376.000,290.976 376.000 C 291.319 376.000,291.600 375.820,291.600 375.600 C 291.600 375.380,291.876 375.200,292.213 375.200 C 292.981 375.200,296.953 373.221,297.133 372.749 C 297.207 372.557,297.612 372.400,298.033 372.400 C 298.455 372.400,298.800 372.220,298.800 372.000 C 298.800 371.780,299.036 371.600,299.325 371.600 C 299.613 371.600,300.236 371.240,300.708 370.800 C 301.180 370.360,301.804 370.000,302.095 370.000 C 302.386 370.000,302.883 369.640,303.200 369.200 C 303.517 368.760,304.082 368.400,304.455 368.400 C 304.828 368.400,305.193 368.255,305.267 368.077 C 305.340 367.899,306.300 367.145,307.400 366.402 C 308.500 365.658,309.691 364.724,310.047 364.325 C 310.403 363.926,310.948 363.600,311.259 363.600 C 311.569 363.600,312.083 363.240,312.400 362.800 C 312.717 362.360,313.185 362.000,313.440 362.000 C 313.695 362.000,314.645 361.280,315.552 360.400 C 316.459 359.520,317.417 358.800,317.680 358.800 C 318.053 358.800,318.053 358.693,317.680 358.320 C 317.319 357.959,317.200 352.836,317.200 337.720 C 317.200 315.895,317.295 316.720,315.000 318.625 M350.093 326.000 C 349.818 326.440,349.731 326.800,349.900 326.800 C 350.069 326.800,350.432 326.440,350.707 326.000 C 350.982 325.560,351.069 325.200,350.900 325.200 C 350.731 325.200,350.368 325.560,350.093 326.000 M104.000 357.954 C 104.000 368.478,103.886 377.923,103.746 378.944 C 103.512 380.652,103.559 380.800,104.346 380.800 C 104.816 380.800,105.200 380.980,105.200 381.200 C 105.200 381.420,105.560 381.600,106.000 381.600 C 106.440 381.600,106.800 381.780,106.800 382.000 C 106.800 382.220,107.160 382.400,107.600 382.400 C 108.040 382.400,108.400 382.591,108.400 382.824 C 108.400 383.057,108.565 383.145,108.768 383.020 C 108.970 382.895,109.407 383.064,109.739 383.396 C 110.071 383.728,110.716 384.000,111.171 384.000 C 111.627 384.000,112.000 384.180,112.000 384.400 C 112.000 384.620,112.360 384.800,112.800 384.800 C 113.240 384.800,113.600 384.980,113.600 385.200 C 113.600 385.420,114.039 385.600,114.576 385.600 C 115.113 385.600,115.664 385.780,115.800 386.000 C 115.936 386.220,116.397 386.400,116.824 386.400 C 117.251 386.400,117.600 386.580,117.600 386.800 C 117.600 387.020,117.962 387.200,118.405 387.200 C 118.848 387.200,119.568 387.380,120.005 387.600 C 120.442 387.820,121.158 388.180,121.595 388.400 C 122.032 388.620,122.752 388.800,123.195 388.800 C 123.638 388.800,124.000 388.999,124.000 389.243 C 124.000 389.486,124.253 389.589,124.561 389.470 C 124.870 389.352,125.455 389.507,125.861 389.815 C 126.268 390.123,126.994 390.380,127.476 390.387 C 127.958 390.394,128.456 390.567,128.583 390.772 C 128.709 390.977,129.800 391.267,131.006 391.418 C 132.213 391.569,133.200 391.851,133.200 392.046 C 133.200 392.241,133.920 392.400,134.800 392.400 C 135.680 392.400,136.400 392.580,136.400 392.800 C 136.400 393.020,136.940 393.200,137.600 393.200 C 138.260 393.200,138.800 393.380,138.800 393.600 C 138.800 393.820,139.520 394.000,140.400 394.000 C 141.280 394.000,142.000 394.180,142.000 394.400 C 142.000 395.276,144.300 394.824,144.548 393.900 C 145.061 391.987,144.827 353.719,144.300 353.301 C 144.025 353.083,142.810 352.688,141.600 352.422 C 140.390 352.157,138.950 351.792,138.400 351.611 C 137.850 351.431,136.050 350.887,134.400 350.403 C 130.932 349.387,124.569 347.313,123.400 346.819 C 122.960 346.633,121.970 346.264,121.200 346.000 C 119.435 345.394,118.663 345.085,116.304 344.040 C 115.262 343.578,114.244 343.200,114.042 343.200 C 113.841 343.200,112.984 342.845,112.138 342.411 C 110.415 341.527,106.583 339.802,105.024 339.209 L 104.000 338.820 104.000 357.954 M240.786 353.347 C 240.668 353.465,239.588 353.743,238.386 353.965 C 237.184 354.186,235.300 354.547,234.200 354.766 C 229.125 355.777,227.231 356.119,225.000 356.423 C 214.165 357.903,209.396 358.330,200.100 358.652 L 193.200 358.891 193.200 379.509 L 193.200 400.127 205.860 399.884 C 213.842 399.730,218.675 399.485,218.940 399.220 C 219.171 398.989,220.483 398.800,221.856 398.800 C 223.229 398.800,224.464 398.620,224.600 398.400 C 224.736 398.180,225.726 398.000,226.800 398.000 C 227.874 398.000,228.864 397.820,229.000 397.600 C 229.136 397.380,230.216 397.200,231.400 397.200 C 232.584 397.200,233.664 397.020,233.800 396.800 C 233.936 396.580,234.847 396.400,235.824 396.400 C 236.801 396.400,237.600 396.220,237.600 396.000 C 237.600 395.780,238.298 395.600,239.151 395.600 C 240.004 395.600,240.859 395.375,241.051 395.100 C 241.420 394.572,241.155 352.977,240.786 353.347 M322.654 354.633 C 322.023 355.187,321.587 355.720,321.683 355.816 C 321.779 355.913,322.374 355.454,323.004 354.796 C 324.396 353.343,324.216 353.259,322.654 354.633 " stroke="none" fill="#f49404" fill-rule="evenodd"></path><path id="path3" d="M386.854 184.800 C 386.819 185.130,386.677 185.850,386.540 186.400 C 386.348 187.172,386.402 187.297,386.777 186.949 C 387.044 186.701,387.185 185.981,387.091 185.349 C 386.997 184.717,386.890 184.470,386.854 184.800 M386.140 190.800 C 386.140 192.670,386.209 193.435,386.293 192.500 C 386.377 191.565,386.377 190.035,386.293 189.100 C 386.209 188.165,386.140 188.930,386.140 190.800 M385.469 195.556 C 385.321 196.295,385.222 197.553,385.249 198.350 C 385.286 199.449,385.382 199.218,385.648 197.400 C 386.031 194.771,385.899 193.405,385.469 195.556 M384.656 202.084 C 384.521 202.588,384.430 203.540,384.453 204.200 C 384.481 205.028,384.597 204.784,384.826 203.413 C 385.176 201.323,385.074 200.526,384.656 202.084 M383.856 207.284 C 383.721 207.788,383.627 208.560,383.646 209.000 C 383.665 209.440,383.845 209.098,384.046 208.240 C 384.436 206.578,384.270 205.740,383.856 207.284 M382.893 213.200 C 382.893 213.970,382.975 214.285,383.076 213.900 C 383.176 213.515,383.176 212.885,383.076 212.500 C 382.975 212.115,382.893 212.430,382.893 213.200 M382.249 215.415 C 382.112 215.773,382.018 216.456,382.041 216.933 C 382.067 217.481,382.203 217.286,382.410 216.403 C 382.760 214.916,382.665 214.333,382.249 215.415 M381.456 218.884 C 381.321 219.388,381.227 220.160,381.246 220.600 C 381.265 221.040,381.445 220.698,381.646 219.840 C 382.036 218.178,381.870 217.340,381.456 218.884 M380.352 223.513 C 380.221 224.307,380.279 224.681,380.501 224.459 C 380.703 224.257,380.801 223.667,380.719 223.146 C 380.593 222.345,380.537 222.402,380.352 223.513 M379.552 226.313 C 379.421 227.107,379.479 227.481,379.701 227.259 C 379.903 227.057,380.001 226.467,379.919 225.946 C 379.793 225.145,379.737 225.202,379.552 226.313 M365.053 261.300 L 364.333 262.600 365.158 261.600 C 365.889 260.713,366.214 260.000,365.886 260.000 C 365.824 260.000,365.449 260.585,365.053 261.300 M361.853 266.900 L 361.133 268.200 361.958 267.200 C 362.689 266.313,363.014 265.600,362.686 265.600 C 362.624 265.600,362.249 266.185,361.853 266.900 M34.390 301.286 C 34.385 311.689,34.219 320.897,34.022 321.749 C 33.747 322.933,33.773 323.187,34.131 322.829 C 34.474 322.487,34.630 317.089,34.711 302.780 C 34.772 292.011,34.952 283.198,35.111 283.196 C 35.270 283.194,35.912 283.779,36.538 284.496 L 37.676 285.800 36.810 284.499 C 34.342 280.791,34.401 280.382,34.390 301.286 M351.696 302.467 C 351.602 321.820,351.677 323.847,352.461 323.362 C 352.693 323.219,352.678 322.935,352.423 322.628 C 352.151 322.300,351.970 315.289,351.900 302.364 L 351.792 282.600 351.696 302.467 M40.434 289.447 C 40.965 290.133,41.480 290.623,41.579 290.535 C 41.677 290.447,41.243 289.886,40.613 289.288 L 39.469 288.200 40.434 289.447 M46.200 295.994 C 47.080 296.980,47.845 297.865,47.900 297.961 C 47.955 298.056,48.086 298.047,48.192 297.942 C 48.297 297.836,47.532 296.951,46.492 295.975 L 44.601 294.200 46.200 295.994 M56.600 306.400 C 57.459 307.280,58.252 308.000,58.362 308.000 C 58.472 308.000,57.859 307.280,57.000 306.400 C 56.141 305.520,55.348 304.800,55.238 304.800 C 55.128 304.800,55.741 305.520,56.600 306.400 M63.669 312.676 C 65.913 314.489,66.317 314.675,64.618 313.112 C 63.728 312.294,62.851 311.619,62.669 311.612 C 62.487 311.605,62.937 312.084,63.669 312.676 M67.911 316.014 L 68.821 317.066 68.711 337.882 C 68.627 353.677,68.716 358.806,69.080 359.146 C 69.453 359.494,69.567 354.910,69.589 338.601 L 69.619 317.609 68.309 316.286 C 67.589 315.558,67.410 315.436,67.911 316.014 M315.362 318.100 C 314.601 318.999,314.601 318.999,315.431 318.300 C 317.223 316.791,317.200 316.533,317.200 337.776 C 317.200 359.062,317.202 359.086,319.058 357.626 C 319.635 357.172,319.926 356.800,319.703 356.800 C 319.480 356.800,319.074 357.070,318.800 357.400 C 318.526 357.730,318.144 358.000,317.951 358.000 C 317.754 358.000,317.600 349.036,317.600 337.600 C 317.600 315.298,317.616 315.438,315.362 318.100 M312.785 320.029 L 311.400 321.258 312.900 320.181 C 314.226 319.230,314.657 318.800,314.285 318.800 C 314.222 318.800,313.547 319.353,312.785 320.029 M297.800 330.000 C 297.140 330.437,296.780 330.792,297.000 330.788 C 297.401 330.782,299.576 329.223,299.200 329.212 C 299.090 329.208,298.460 329.563,297.800 330.000 M294.900 331.646 C 293.537 332.519,293.095 333.106,294.300 332.443 C 295.218 331.939,296.656 330.827,296.400 330.819 C 296.290 330.816,295.615 331.188,294.900 331.646 M282.814 338.374 C 282.541 338.884,282.432 345.926,282.493 359.074 L 282.585 379.000 282.793 358.800 C 282.907 347.690,283.146 338.375,283.324 338.100 C 283.502 337.825,283.553 337.600,283.438 337.600 C 283.322 337.600,283.042 337.948,282.814 338.374 M103.107 359.100 C 103.048 370.485,103.045 379.875,103.100 379.967 C 103.650 380.883,103.816 376.642,103.914 359.185 C 104.020 340.173,104.073 338.850,104.714 339.056 C 105.297 339.242,105.310 339.211,104.800 338.844 C 103.211 337.701,103.218 337.617,103.107 359.100 M144.314 353.292 C 144.721 353.786,144.804 358.168,144.714 374.387 C 144.623 390.714,144.698 394.629,145.086 393.729 C 145.444 392.895,145.571 387.508,145.571 373.106 L 145.571 353.613 144.686 353.141 C 143.904 352.724,143.860 352.742,144.314 353.292 M238.600 353.600 C 237.581 354.038,238.632 354.038,240.000 353.600 C 240.804 353.343,240.843 353.277,240.200 353.268 C 239.760 353.262,239.040 353.411,238.600 353.600 M241.386 373.400 C 241.386 384.620,241.437 389.268,241.500 383.728 C 241.562 378.188,241.562 369.008,241.500 363.328 C 241.437 357.648,241.386 362.180,241.386 373.400 M234.800 354.400 C 233.976 354.664,233.941 354.726,234.600 354.754 C 235.040 354.773,235.670 354.613,236.000 354.400 C 236.701 353.947,236.214 353.947,234.800 354.400 M230.800 355.218 C 230.362 355.515,230.524 355.552,231.400 355.356 C 232.871 355.027,233.190 354.798,232.167 354.806 C 231.745 354.809,231.130 354.995,230.800 355.218 M226.400 356.000 C 225.596 356.257,225.557 356.323,226.200 356.332 C 226.640 356.338,227.360 356.189,227.800 356.000 C 228.819 355.562,227.768 355.562,226.400 356.000 M220.600 356.800 C 219.511 357.077,219.493 357.107,220.400 357.125 C 220.950 357.135,221.760 356.989,222.200 356.800 C 223.186 356.376,222.266 356.376,220.600 356.800 M214.000 357.600 C 212.643 357.886,212.637 357.895,213.800 357.907 C 214.460 357.915,215.450 357.776,216.000 357.600 C 217.312 357.180,215.996 357.180,214.000 357.600 M206.100 358.276 C 206.485 358.376,207.115 358.376,207.500 358.276 C 207.885 358.175,207.570 358.093,206.800 358.093 C 206.030 358.093,205.715 358.175,206.100 358.276 M200.900 358.691 C 201.725 358.778,203.075 358.778,203.900 358.691 C 204.725 358.605,204.050 358.534,202.400 358.534 C 200.750 358.534,200.075 358.605,200.900 358.691 M192.986 379.400 C 192.986 390.840,193.037 395.462,193.100 389.672 C 193.162 383.882,193.162 374.522,193.100 368.872 C 193.037 363.222,192.986 367.960,192.986 379.400 M72.400 361.500 C 72.400 361.669,72.760 362.032,73.200 362.307 C 73.640 362.582,74.000 362.669,74.000 362.500 C 74.000 362.331,73.640 361.968,73.200 361.693 C 72.760 361.418,72.400 361.331,72.400 361.500 M87.600 371.779 C 87.600 371.889,88.140 372.259,88.800 372.600 C 89.460 372.941,90.000 373.131,90.000 373.021 C 90.000 372.911,89.460 372.541,88.800 372.200 C 88.140 371.859,87.600 371.669,87.600 371.779 " stroke="none" fill="#fca41f" fill-rule="evenodd"></path><path id="path4" d="M179.800 41.630 C 173.954 42.220,169.516 42.801,167.694 43.213 C 166.756 43.426,165.388 43.600,164.654 43.600 C 163.920 43.600,162.798 43.761,162.160 43.957 C 161.522 44.153,159.920 44.527,158.600 44.787 C 155.531 45.392,151.276 46.439,148.800 47.200 C 148.250 47.369,146.990 47.729,146.000 47.999 C 145.010 48.270,143.840 48.626,143.400 48.790 C 142.960 48.955,141.880 49.307,141.000 49.573 C 134.579 51.516,119.395 58.208,113.000 61.914 C 106.768 65.525,97.700 71.560,95.126 73.809 C 94.617 74.254,93.821 74.884,93.357 75.209 C 88.613 78.537,78.489 88.314,72.657 95.200 C 68.020 100.674,61.600 109.484,61.600 110.372 C 61.600 110.607,61.453 110.800,61.274 110.800 C 61.095 110.800,60.649 111.385,60.283 112.100 C 59.918 112.815,59.195 114.120,58.677 115.000 C 55.380 120.602,51.395 128.896,49.547 134.000 C 48.006 138.256,46.302 143.415,45.979 144.800 C 45.800 145.570,45.449 146.920,45.200 147.800 C 43.904 152.375,42.997 157.294,41.917 165.600 C 41.274 170.549,41.276 187.847,41.921 193.000 C 42.668 198.973,43.558 204.234,44.375 207.500 C 44.609 208.435,44.968 209.875,45.173 210.700 C 45.379 211.525,45.727 212.830,45.946 213.600 C 46.166 214.370,46.463 215.450,46.606 216.000 C 46.750 216.550,47.007 217.360,47.178 217.800 C 47.349 218.240,47.706 219.320,47.971 220.200 C 48.236 221.080,48.601 222.160,48.782 222.600 C 48.962 223.040,49.787 225.110,50.615 227.200 C 52.042 230.806,55.697 238.450,57.546 241.700 C 58.016 242.525,58.750 243.818,59.178 244.573 C 61.060 247.894,66.323 255.746,68.020 257.764 C 68.406 258.224,69.855 260.040,71.239 261.800 C 77.404 269.639,91.570 282.677,100.600 288.822 C 102.360 290.020,103.860 291.135,103.933 291.300 C 104.007 291.465,104.242 291.600,104.455 291.600 C 104.669 291.600,105.869 292.286,107.122 293.124 C 111.695 296.184,123.679 302.478,128.600 304.405 C 129.040 304.577,130.089 305.022,130.931 305.392 C 132.934 306.275,138.470 308.299,141.000 309.074 C 142.100 309.411,143.360 309.823,143.800 309.988 C 147.984 311.562,157.730 313.868,165.800 315.193 C 189.573 319.096,215.735 317.658,238.600 311.193 C 239.260 311.007,240.250 310.737,240.800 310.594 C 241.350 310.450,242.160 310.189,242.600 310.012 C 243.040 309.836,244.210 309.459,245.200 309.176 C 246.190 308.893,247.171 308.512,247.380 308.330 C 247.589 308.149,248.086 308.000,248.485 308.000 C 248.884 308.000,249.523 307.841,249.905 307.647 C 250.667 307.259,252.839 306.361,255.700 305.251 C 259.523 303.767,270.636 298.352,273.789 296.436 C 275.270 295.536,276.558 294.800,276.650 294.800 C 276.859 294.800,288.568 286.981,289.513 286.209 C 289.891 285.901,291.280 284.793,292.600 283.745 C 300.955 277.117,309.298 268.893,315.309 261.360 C 317.222 258.962,318.941 256.814,319.129 256.586 C 320.221 255.263,326.927 244.930,328.336 242.400 C 329.939 239.521,334.400 230.520,334.400 230.164 C 334.400 230.069,334.739 229.228,335.154 228.296 C 335.569 227.363,336.303 225.520,336.786 224.200 C 337.269 222.880,337.830 221.487,338.032 221.105 C 338.234 220.723,338.400 220.059,338.400 219.629 C 338.400 219.199,338.559 218.749,338.754 218.629 C 338.949 218.508,339.203 217.913,339.320 217.305 C 339.437 216.697,339.926 214.850,340.407 213.200 C 344.458 199.286,346.169 177.182,344.200 164.200 C 344.067 163.320,343.781 161.430,343.566 160.000 C 343.088 156.823,342.464 153.503,341.970 151.500 C 341.182 148.308,340.783 146.738,340.343 145.100 C 339.778 142.996,337.678 136.484,337.216 135.400 C 337.028 134.960,336.607 133.880,336.280 133.000 C 329.088 113.647,313.603 92.294,296.400 78.008 C 290.867 73.414,281.365 66.400,280.673 66.400 C 280.554 66.400,279.409 65.709,278.128 64.865 C 273.794 62.008,262.507 56.124,257.600 54.164 C 250.433 51.301,246.937 50.012,246.324 50.006 C 245.952 50.003,245.536 49.820,245.400 49.600 C 245.264 49.380,244.724 49.200,244.200 49.200 C 243.676 49.200,243.149 49.041,243.029 48.846 C 242.908 48.651,242.313 48.396,241.705 48.279 C 241.097 48.162,239.925 47.871,239.100 47.633 C 235.560 46.611,234.501 46.326,232.800 45.935 C 231.810 45.707,230.280 45.348,229.400 45.136 C 224.593 43.977,215.999 42.587,209.800 41.966 C 204.275 41.413,184.182 41.188,179.800 41.630 M207.800 42.390 C 232.259 44.596,255.359 51.917,275.465 63.833 C 279.094 65.984,289.138 72.621,289.600 73.174 C 289.874 73.501,291.972 75.189,293.611 76.400 C 298.126 79.737,310.138 91.510,313.609 96.000 C 314.374 96.990,315.090 97.890,315.200 98.000 C 315.675 98.475,318.653 102.231,319.200 103.046 C 319.530 103.537,320.925 105.565,322.300 107.552 C 323.675 109.540,324.800 111.353,324.800 111.583 C 324.800 111.812,324.959 112.000,325.153 112.000 C 325.348 112.000,325.610 112.315,325.736 112.700 C 325.862 113.085,326.451 114.210,327.045 115.200 C 330.662 121.230,333.907 128.113,336.626 135.521 C 337.409 137.654,338.149 139.670,338.271 140.000 C 338.393 140.330,338.662 141.230,338.869 142.000 C 339.076 142.770,339.403 143.940,339.595 144.600 C 343.017 156.339,344.175 165.071,344.185 179.200 C 344.191 188.534,343.923 192.608,342.826 199.800 C 342.248 203.594,341.446 207.220,339.908 213.000 C 339.094 216.061,336.453 223.819,335.210 226.800 C 334.522 228.450,333.666 230.509,333.306 231.375 C 328.117 243.886,317.507 259.216,305.880 271.000 C 302.624 274.300,298.967 277.810,297.753 278.800 C 296.539 279.790,295.243 280.872,294.873 281.204 C 291.646 284.102,276.951 294.400,276.044 294.400 C 275.836 294.400,275.607 294.535,275.533 294.700 C 275.460 294.865,274.590 295.430,273.600 295.956 C 265.516 300.250,262.973 301.509,258.879 303.244 C 256.306 304.334,253.840 305.383,253.400 305.574 C 252.960 305.765,251.520 306.314,250.200 306.793 C 248.880 307.272,247.487 307.830,247.105 308.032 C 246.723 308.234,246.059 308.400,245.629 308.400 C 245.199 308.400,244.736 308.580,244.600 308.800 C 244.464 309.020,244.001 309.200,243.571 309.200 C 243.141 309.200,242.477 309.371,242.095 309.580 C 241.713 309.789,240.230 310.253,238.800 310.612 C 237.370 310.970,235.570 311.443,234.800 311.662 C 234.030 311.881,232.680 312.217,231.800 312.408 C 230.920 312.600,229.390 312.948,228.400 313.183 C 226.700 313.586,225.504 313.806,219.500 314.824 C 202.386 317.723,178.843 317.386,162.000 314.001 C 160.790 313.758,158.990 313.399,158.000 313.204 C 157.010 313.010,155.390 312.646,154.400 312.396 C 153.410 312.146,152.013 311.845,151.296 311.727 C 150.579 311.608,149.894 311.351,149.773 311.156 C 149.652 310.960,149.170 310.800,148.703 310.800 C 148.236 310.800,146.761 310.436,145.427 309.991 C 144.092 309.546,142.370 308.994,141.600 308.765 C 140.830 308.535,139.840 308.191,139.400 308.000 C 138.960 307.809,137.430 307.255,136.000 306.770 C 134.570 306.284,132.467 305.462,131.326 304.943 C 130.185 304.425,129.163 304.000,129.055 304.000 C 128.152 304.000,115.819 297.797,110.882 294.860 C 109.718 294.167,108.593 293.600,108.382 293.600 C 108.172 293.600,108.000 293.458,108.000 293.285 C 108.000 293.111,106.965 292.356,105.700 291.608 C 104.435 290.859,102.050 289.262,100.400 288.060 C 97.001 285.583,91.235 281.229,90.535 280.611 C 83.321 274.238,74.484 265.185,70.805 260.400 C 70.043 259.410,69.315 258.510,69.185 258.400 C 69.055 258.290,67.614 256.321,65.983 254.025 C 63.323 250.280,61.730 247.834,59.978 244.800 C 59.660 244.250,59.310 243.710,59.200 243.600 C 58.744 243.144,54.478 234.813,53.055 231.600 C 50.241 225.242,46.950 215.929,45.990 211.600 C 45.722 210.390,45.358 209.040,45.183 208.600 C 45.007 208.160,44.744 207.080,44.597 206.200 C 44.450 205.320,44.163 203.790,43.958 202.800 C 38.182 174.874,44.067 140.421,58.820 115.800 C 59.479 114.700,60.136 113.530,60.280 113.200 C 60.424 112.870,60.645 112.510,60.771 112.400 C 60.897 112.290,61.287 111.687,61.638 111.061 C 62.946 108.724,67.451 102.458,71.319 97.595 C 76.238 91.408,85.514 82.122,91.800 77.090 C 99.403 71.003,104.414 67.563,112.800 62.672 C 131.817 51.579,155.779 44.307,179.558 42.412 C 182.285 42.195,184.625 41.907,184.758 41.773 C 185.090 41.439,202.389 41.901,207.800 42.390 M188.600 61.787 C 188.380 61.888,185.410 62.165,182.000 62.403 C 166.602 63.477,155.880 65.873,140.400 71.697 C 135.974 73.362,124.517 78.915,122.338 80.451 C 121.754 80.863,121.164 81.200,121.027 81.200 C 120.316 81.200,106.725 90.599,104.555 92.591 C 104.310 92.816,102.961 93.990,101.556 95.200 C 92.580 102.930,82.333 115.114,77.249 124.100 C 76.782 124.925,76.009 126.275,75.531 127.100 C 70.497 135.784,65.955 147.972,63.942 158.200 C 59.286 181.850,62.645 206.599,73.305 227.200 C 77.439 235.188,77.627 235.524,78.219 236.016 C 78.539 236.281,78.800 236.666,78.800 236.871 C 78.800 237.175,81.235 240.981,82.465 242.600 C 90.662 253.390,99.361 262.323,107.589 268.400 C 108.333 268.950,109.406 269.776,109.971 270.237 C 111.250 271.277,119.183 276.563,120.000 276.920 C 120.330 277.064,121.500 277.731,122.600 278.402 C 125.209 279.994,136.034 285.262,138.600 286.190 C 139.700 286.587,140.780 287.035,141.000 287.184 C 141.220 287.334,142.210 287.701,143.200 288.000 C 144.190 288.299,145.180 288.659,145.400 288.800 C 145.620 288.941,146.610 289.289,147.600 289.574 C 148.590 289.858,149.760 290.226,150.200 290.390 C 152.192 291.134,153.925 291.600,154.705 291.600 C 155.171 291.600,155.652 291.760,155.773 291.956 C 155.894 292.151,156.579 292.411,157.296 292.531 C 158.744 292.775,161.658 293.380,164.400 294.006 C 175.692 296.582,198.097 297.570,209.800 296.008 C 214.590 295.369,218.409 294.779,220.200 294.402 C 221.080 294.217,222.880 293.854,224.200 293.597 C 225.520 293.340,226.913 292.965,227.295 292.765 C 227.677 292.564,228.521 292.400,229.171 292.400 C 229.821 292.400,230.464 292.220,230.600 292.000 C 230.736 291.780,231.289 291.600,231.829 291.600 C 232.369 291.600,233.123 291.440,233.505 291.245 C 233.887 291.049,236.000 290.321,238.200 289.627 C 240.400 288.932,242.560 288.212,243.000 288.027 C 243.440 287.841,245.510 287.013,247.600 286.187 C 249.690 285.361,253.920 283.424,257.000 281.882 C 260.080 280.341,263.004 278.882,263.497 278.640 C 263.990 278.398,264.395 278.065,264.397 277.900 C 264.399 277.735,264.670 277.600,265.000 277.600 C 266.009 277.600,265.681 276.423,263.800 273.293 C 262.810 271.646,262.000 270.219,262.000 270.121 C 262.000 270.024,261.460 269.159,260.800 268.200 C 260.140 267.241,259.600 266.328,259.600 266.172 C 259.600 264.823,258.146 264.994,255.046 266.709 C 252.052 268.365,247.342 270.665,244.000 272.103 C 243.230 272.434,241.970 272.982,241.200 273.319 C 240.430 273.657,239.080 274.165,238.200 274.448 C 237.320 274.732,236.429 275.107,236.220 275.282 C 236.011 275.457,235.437 275.600,234.944 275.600 C 234.451 275.600,233.936 275.780,233.800 276.000 C 233.664 276.220,233.124 276.400,232.600 276.400 C 232.076 276.400,231.536 276.580,231.400 276.800 C 231.264 277.020,230.634 277.200,230.000 277.200 C 229.366 277.200,228.748 277.360,228.627 277.556 C 228.506 277.751,227.821 278.008,227.104 278.127 C 226.387 278.245,224.990 278.545,224.000 278.793 C 221.243 279.483,218.813 279.997,216.463 280.387 C 213.615 280.859,213.214 281.383,215.970 281.031 C 218.258 280.739,224.705 279.371,226.400 278.819 C 226.950 278.639,228.210 278.268,229.200 277.993 C 231.480 277.359,235.554 276.050,236.600 275.614 C 237.040 275.431,238.030 275.061,238.800 274.793 C 239.570 274.525,240.830 274.036,241.600 273.706 C 242.370 273.375,243.630 272.840,244.400 272.516 C 245.170 272.192,248.629 270.512,252.087 268.784 L 258.375 265.641 259.138 266.720 C 260.196 268.216,264.599 275.657,264.892 276.444 C 265.147 277.129,265.077 277.174,258.172 280.784 C 250.420 284.837,239.160 289.140,229.800 291.627 C 223.551 293.287,219.592 294.034,208.694 295.606 C 205.519 296.064,180.313 296.240,179.615 295.809 C 179.409 295.682,177.656 295.402,175.720 295.187 C 163.653 293.848,151.272 290.711,139.400 285.985 C 136.223 284.720,123.983 278.867,123.600 278.429 C 123.490 278.303,122.970 277.958,122.445 277.662 C 121.920 277.367,120.871 276.777,120.114 276.352 C 117.226 274.729,107.368 267.877,106.400 266.819 C 106.290 266.698,105.210 265.795,104.000 264.811 C 94.335 256.953,82.073 242.684,77.610 234.104 C 77.065 233.057,76.513 232.110,76.383 232.000 C 75.899 231.592,71.307 222.089,70.101 219.000 C 66.506 209.796,65.270 205.084,63.122 192.400 C 61.158 180.793,63.137 160.278,67.542 146.600 C 71.851 133.218,80.250 118.541,89.974 107.400 C 94.552 102.156,104.324 93.131,108.800 90.014 C 109.570 89.477,110.290 88.917,110.400 88.767 C 111.996 86.603,130.356 76.322,138.200 73.200 C 138.640 73.025,139.630 72.608,140.400 72.275 C 141.965 71.596,148.349 69.328,150.200 68.792 C 160.060 65.940,166.502 64.609,177.600 63.129 C 182.633 62.458,203.762 62.448,208.600 63.114 C 223.574 65.177,232.813 67.365,243.620 71.408 C 250.553 74.002,257.282 77.205,264.000 81.107 C 267.703 83.258,274.399 87.534,274.800 88.004 C 274.910 88.133,275.630 88.671,276.400 89.200 C 277.170 89.729,277.890 90.271,278.000 90.404 C 278.110 90.537,278.594 90.915,279.076 91.244 C 283.422 94.209,292.588 103.088,297.957 109.534 C 301.160 113.379,307.783 122.638,308.305 124.000 C 308.431 124.330,309.010 125.320,309.592 126.200 C 311.424 128.973,315.324 137.270,317.301 142.600 C 321.651 154.326,325.617 178.094,323.367 178.957 C 322.466 179.303,311.492 179.247,310.943 178.894 C 310.661 178.713,310.398 176.676,310.258 173.600 C 309.951 166.841,308.981 160.822,307.194 154.600 C 306.941 153.720,306.638 152.503,306.521 151.895 C 306.404 151.287,306.149 150.692,305.954 150.571 C 305.759 150.451,305.600 150.001,305.600 149.571 C 305.600 149.141,305.441 148.477,305.247 148.095 C 305.052 147.713,304.712 146.950,304.491 146.400 C 291.950 115.203,263.584 90.082,230.800 81.137 C 230.030 80.927,228.770 80.573,228.000 80.351 C 209.390 74.980,183.872 74.171,166.400 78.398 C 162.842 79.259,159.311 80.082,158.400 80.262 C 157.850 80.371,157.040 80.604,156.600 80.779 C 156.160 80.954,154.000 81.669,151.800 82.367 C 149.600 83.065,147.440 83.799,147.000 83.998 C 146.560 84.197,144.580 85.015,142.600 85.816 C 137.005 88.078,126.537 93.594,124.200 95.512 C 123.980 95.693,123.530 95.947,123.200 96.078 C 121.320 96.822,111.913 104.348,106.048 109.799 C 96.974 118.233,86.834 133.257,82.423 144.800 C 81.708 146.670,80.979 148.560,80.802 149.000 C 80.107 150.731,79.500 152.799,78.425 157.100 C 74.199 174.017,74.694 189.818,79.990 207.000 C 80.668 209.200,81.381 211.360,81.574 211.800 C 81.767 212.240,82.195 213.320,82.524 214.200 C 84.722 220.073,91.223 231.607,94.999 236.335 C 101.252 244.163,107.239 250.402,112.600 254.676 C 113.480 255.377,115.190 256.741,116.400 257.705 C 123.027 262.989,135.561 270.187,143.400 273.210 C 143.840 273.380,144.830 273.794,145.600 274.130 C 146.370 274.467,147.900 275.034,149.000 275.391 C 150.100 275.748,151.360 276.196,151.800 276.387 C 152.240 276.577,152.960 276.823,153.400 276.932 C 153.840 277.041,155.730 277.580,157.600 278.128 C 172.015 282.354,192.818 284.014,208.117 282.159 C 213.576 281.498,215.796 280.915,211.200 281.350 C 193.012 283.073,179.736 282.567,165.800 279.619 C 164.700 279.387,163.121 279.083,162.290 278.944 C 161.460 278.806,160.684 278.536,160.567 278.346 C 160.449 278.156,159.922 278.000,159.395 278.000 C 158.869 278.000,158.024 277.840,157.519 277.644 C 157.013 277.448,155.250 276.875,153.600 276.372 C 151.950 275.868,150.429 275.308,150.220 275.128 C 150.011 274.948,149.514 274.800,149.115 274.800 C 148.716 274.800,147.987 274.592,147.495 274.338 C 145.729 273.425,145.205 273.200,144.845 273.200 C 143.745 273.200,131.243 266.954,126.600 264.085 C 114.142 256.387,105.587 248.669,95.400 235.935 C 89.549 228.622,82.690 214.986,79.940 205.200 C 77.808 197.613,77.306 194.560,76.167 182.266 C 75.792 178.220,76.760 167.226,78.003 161.400 C 80.026 151.916,83.042 143.524,87.249 135.669 C 90.042 130.453,90.100 130.355,90.900 129.445 C 91.285 129.007,91.600 128.441,91.600 128.187 C 91.600 127.932,91.960 127.398,92.400 127.000 C 92.840 126.602,93.200 126.113,93.200 125.915 C 93.200 125.568,93.618 125.001,97.544 120.015 C 104.060 111.740,120.149 97.445,125.038 95.586 C 125.499 95.410,126.136 95.027,126.453 94.733 C 127.571 93.701,135.479 89.472,140.400 87.275 C 147.852 83.948,158.707 80.444,165.600 79.142 C 166.810 78.913,168.610 78.559,169.600 78.356 C 180.613 76.091,198.482 75.578,209.502 77.211 C 216.216 78.206,217.907 78.482,219.200 78.792 C 219.970 78.976,221.590 79.340,222.800 79.600 C 228.292 80.782,238.765 84.181,244.000 86.481 C 247.052 87.822,255.302 91.962,257.210 93.111 C 258.205 93.710,260.005 94.794,261.210 95.521 C 271.310 101.612,283.265 112.573,290.524 122.400 C 291.580 123.830,292.705 125.317,293.022 125.705 C 293.340 126.092,293.600 126.553,293.600 126.729 C 293.600 126.905,293.915 127.407,294.300 127.845 C 294.685 128.283,295.257 129.082,295.571 129.620 C 298.879 135.295,300.123 137.659,301.878 141.600 C 303.925 146.197,306.204 152.470,306.855 155.300 C 307.045 156.125,307.381 157.565,307.602 158.500 C 308.856 163.798,309.544 168.703,309.942 175.200 L 310.200 179.400 317.200 179.400 L 324.200 179.400 324.191 175.000 C 324.181 170.254,323.496 164.138,322.332 158.400 C 320.338 148.569,313.256 129.370,310.824 127.200 C 310.701 127.090,310.358 126.570,310.062 126.045 C 309.767 125.520,309.177 124.471,308.752 123.714 C 306.592 119.868,301.986 113.452,297.617 108.200 C 295.370 105.499,284.906 95.236,282.120 93.000 C 280.475 91.680,278.920 90.413,278.664 90.185 C 278.409 89.957,277.030 88.967,275.600 87.985 C 274.170 87.003,272.910 86.107,272.800 85.994 C 272.591 85.779,266.822 82.090,264.400 80.623 C 263.630 80.156,261.740 79.154,260.200 78.395 C 258.660 77.637,257.310 76.923,257.200 76.808 C 256.744 76.333,255.169 75.600,254.605 75.600 C 254.272 75.600,254.000 75.420,254.000 75.200 C 254.000 74.980,253.762 74.800,253.471 74.800 C 253.180 74.800,251.875 74.292,250.571 73.671 C 249.267 73.050,247.570 72.312,246.800 72.031 C 246.030 71.749,245.040 71.357,244.600 71.159 C 240.027 69.098,224.985 65.071,217.000 63.769 C 209.471 62.542,189.927 61.178,188.600 61.787 M386.701 171.900 C 386.621 172.065,386.681 172.830,386.836 173.600 C 387.115 174.990,387.117 174.988,387.080 173.300 C 387.044 171.597,386.974 171.340,386.701 171.900 M386.500 181.566 C 386.225 182.458,386.013 184.045,386.028 185.094 L 386.056 187.000 386.644 185.400 C 386.967 184.520,387.179 182.932,387.116 181.872 L 387.000 179.944 386.500 181.566 M0.000 188.636 C 0.000 191.402,1.509 203.854,2.419 208.600 C 3.640 214.965,4.480 218.854,5.142 221.200 C 5.359 221.970,5.830 223.770,6.188 225.200 C 6.547 226.630,7.011 228.113,7.220 228.495 C 7.429 228.877,7.600 229.541,7.600 229.971 C 7.600 230.401,7.780 230.864,8.000 231.000 C 8.220 231.136,8.400 231.676,8.400 232.200 C 8.400 232.724,8.580 233.264,8.800 233.400 C 9.020 233.536,9.200 234.051,9.200 234.544 C 9.200 235.037,9.343 235.611,9.518 235.820 C 9.693 236.029,10.069 236.920,10.352 237.800 C 10.635 238.680,11.212 240.163,11.634 241.096 C 12.055 242.028,12.400 242.946,12.400 243.134 C 12.400 243.323,12.652 244.000,12.960 244.639 C 13.268 245.277,14.103 247.150,14.815 248.800 C 16.393 252.458,21.357 262.136,22.424 263.634 C 22.851 264.233,23.200 264.841,23.200 264.984 C 23.200 265.127,23.880 266.269,24.711 267.522 C 25.542 268.775,26.472 270.295,26.778 270.900 C 27.085 271.505,27.485 272.000,27.668 272.000 C 27.850 272.000,28.000 272.242,28.000 272.538 C 28.000 272.834,28.391 273.419,28.869 273.838 C 29.898 274.741,29.734 274.421,27.206 270.600 C 22.820 263.970,17.168 253.261,13.801 245.200 C 12.744 242.670,11.650 240.060,11.370 239.400 C 11.091 238.740,10.733 237.660,10.576 237.000 C 10.418 236.340,10.168 235.620,10.019 235.400 C 9.870 235.180,9.334 233.650,8.827 232.000 C 8.320 230.350,7.767 228.640,7.598 228.200 C 7.313 227.458,6.793 225.604,6.195 223.200 C 6.058 222.650,5.765 221.570,5.543 220.800 C 5.321 220.030,4.983 218.680,4.792 217.800 C 4.600 216.920,4.250 215.390,4.014 214.400 C 3.777 213.410,3.405 211.520,3.188 210.200 C 2.970 208.880,2.618 206.810,2.405 205.600 C 1.789 202.098,1.166 196.550,0.872 191.933 C 0.607 187.782,0.000 185.485,0.000 188.636 M385.665 190.800 C 385.625 191.570,385.504 192.920,385.397 193.800 L 385.203 195.400 385.623 194.062 C 385.854 193.327,385.974 191.977,385.891 191.062 C 385.748 189.491,385.736 189.477,385.665 190.800 M384.924 197.800 C 384.926 199.120,385.001 199.612,385.090 198.893 C 385.179 198.174,385.177 197.094,385.086 196.493 C 384.995 195.892,384.922 196.480,384.924 197.800 M384.109 204.000 C 384.109 204.990,384.187 205.395,384.282 204.900 C 384.378 204.405,384.378 203.595,384.282 203.100 C 384.187 202.605,384.109 203.010,384.109 204.000 M383.293 208.800 C 383.293 209.570,383.375 209.885,383.476 209.500 C 383.576 209.115,383.576 208.485,383.476 208.100 C 383.375 207.715,383.293 208.030,383.293 208.800 M382.454 213.067 C 382.425 213.544,382.296 214.264,382.170 214.667 C 381.952 215.361,381.964 215.362,382.396 214.688 C 382.647 214.297,382.775 213.577,382.681 213.088 C 382.509 212.201,382.509 212.201,382.454 213.067 M381.450 217.250 C 381.309 217.953,381.269 218.602,381.359 218.692 C 381.450 218.783,381.648 218.291,381.800 217.600 C 381.952 216.909,381.993 216.259,381.891 216.158 C 381.789 216.056,381.591 216.547,381.450 217.250 M297.803 225.361 C 297.251 226.084,296.800 226.800,296.800 226.953 C 296.800 228.466,287.689 240.276,281.894 246.274 C 277.695 250.622,277.544 249.738,283.554 256.000 L 287.969 260.600 291.884 256.598 C 296.145 252.243,300.668 246.955,302.829 243.800 C 303.583 242.700,304.302 241.710,304.426 241.600 C 305.339 240.793,310.332 232.610,310.626 231.438 C 310.803 230.734,310.521 230.396,309.122 229.632 C 308.175 229.115,306.455 228.177,305.300 227.546 C 304.145 226.916,302.211 225.870,301.003 225.223 L 298.806 224.046 297.803 225.361 M302.600 226.680 C 303.920 227.409,306.203 228.651,307.674 229.439 C 310.536 230.972,310.601 231.143,309.135 233.262 C 308.731 233.846,308.400 234.439,308.400 234.580 C 308.400 234.989,303.192 242.624,301.292 245.000 C 301.116 245.220,300.708 245.779,300.386 246.243 C 297.370 250.580,288.048 260.117,287.453 259.474 C 281.665 253.234,279.156 250.338,279.265 250.026 C 279.339 249.815,280.846 248.148,282.614 246.321 C 284.381 244.495,286.629 242.010,287.608 240.800 C 288.588 239.590,289.490 238.510,289.614 238.400 C 289.737 238.290,290.274 237.570,290.806 236.800 C 291.338 236.030,291.963 235.204,292.195 234.964 C 292.568 234.577,295.187 230.579,297.863 226.312 C 298.917 224.630,298.887 224.628,302.600 226.680 M371.400 247.461 C 371.064 248.265,370.882 249.015,370.995 249.128 C 371.108 249.241,371.200 249.235,371.200 249.116 C 371.200 248.996,371.472 248.246,371.805 247.449 C 372.138 246.652,372.321 246.000,372.211 246.000 C 372.101 246.000,371.736 246.658,371.400 247.461 M369.752 251.100 C 369.374 251.925,368.995 252.735,368.909 252.900 C 368.823 253.065,368.845 253.200,368.958 253.200 C 369.070 253.200,369.471 252.525,369.848 251.700 C 370.226 250.875,370.605 250.065,370.691 249.900 C 370.777 249.735,370.755 249.600,370.642 249.600 C 370.530 249.600,370.129 250.275,369.752 251.100 M367.186 256.301 C 366.345 257.987,366.340 258.000,366.547 258.000 C 366.805 258.000,368.042 255.508,367.869 255.336 C 367.795 255.262,367.488 255.696,367.186 256.301 M30.061 275.775 C 30.318 276.339,30.686 276.800,30.878 276.800 C 31.288 276.800,30.582 275.360,29.995 274.997 C 29.766 274.855,29.794 275.189,30.061 275.775 M32.046 278.500 C 33.847 281.101,35.276 282.800,35.662 282.800 C 35.879 282.800,35.760 282.503,35.396 282.139 C 35.032 281.775,34.024 280.515,33.155 279.339 C 31.450 277.031,30.565 276.362,32.046 278.500 M352.892 279.429 C 352.397 280.183,352.072 280.800,352.169 280.800 C 352.447 280.800,354.104 278.371,353.939 278.206 C 353.857 278.124,353.386 278.674,352.892 279.429 M349.171 284.690 C 348.212 285.960,346.702 287.822,345.814 288.826 C 344.926 289.830,343.613 291.387,342.896 292.286 C 339.859 296.090,328.252 307.440,322.600 312.131 C 318.496 315.537,318.552 315.494,316.732 316.643 C 315.101 317.673,309.645 321.664,308.413 322.730 C 307.028 323.927,309.086 322.555,312.362 320.096 C 314.253 318.678,316.250 317.318,316.800 317.075 C 317.626 316.710,321.280 313.981,322.000 313.192 C 322.110 313.071,322.740 312.558,323.400 312.051 C 328.395 308.218,340.459 296.154,345.451 290.000 C 346.076 289.230,346.684 288.510,346.803 288.400 C 347.648 287.618,351.259 282.726,351.105 282.572 C 350.999 282.466,350.129 283.419,349.171 284.690 M38.400 286.525 C 38.400 286.594,38.973 287.179,39.674 287.825 L 40.949 289.000 39.974 287.722 C 39.147 286.637,38.400 286.069,38.400 286.525 M44.000 293.000 C 46.020 295.058,46.741 295.444,44.975 293.521 C 44.329 292.818,43.588 292.008,43.329 291.721 C 43.069 291.435,42.717 291.200,42.545 291.200 C 42.374 291.200,43.028 292.010,44.000 293.000 M53.521 302.712 C 57.585 306.734,60.991 309.943,61.090 309.843 C 61.190 309.744,60.490 308.980,59.536 308.145 C 58.581 307.311,55.175 304.102,51.967 301.014 C 48.494 297.672,49.123 298.359,53.521 302.712 M62.400 310.925 C 62.400 311.023,63.255 311.791,64.300 312.632 C 65.345 313.472,65.840 313.745,65.400 313.237 C 64.574 312.283,62.400 310.608,62.400 310.925 M66.800 314.468 C 67.777 315.490,71.742 318.931,73.018 319.865 C 73.668 320.341,75.057 321.376,76.103 322.165 C 77.150 322.954,78.185 323.600,78.403 323.600 C 78.622 323.600,78.800 323.758,78.800 323.951 C 78.800 324.145,79.340 324.527,80.000 324.800 C 80.660 325.073,81.200 325.455,81.200 325.649 C 81.200 325.842,81.436 326.000,81.725 326.000 C 82.013 326.000,82.608 326.315,83.046 326.700 C 83.895 327.445,83.988 327.506,88.000 329.930 C 97.293 335.546,105.872 339.811,104.984 338.374 C 104.857 338.168,104.448 337.999,104.076 337.997 C 103.490 337.995,95.550 333.884,91.100 331.278 C 90.275 330.795,88.966 330.041,88.190 329.601 C 83.962 327.206,72.984 319.445,68.000 315.328 C 67.010 314.510,66.470 314.123,66.800 314.468 M297.900 329.429 C 296.405 330.240,296.496 330.578,298.000 329.800 C 298.660 329.459,299.200 329.094,299.200 328.990 C 299.200 328.732,299.157 328.747,297.900 329.429 M287.500 335.227 C 286.675 335.663,286.000 336.108,286.000 336.218 C 286.000 336.327,286.720 336.049,287.600 335.600 C 288.480 335.151,289.200 334.697,289.200 334.592 C 289.200 334.330,289.197 334.331,287.500 335.227 M280.600 338.763 C 279.060 339.563,276.810 340.642,275.600 341.161 C 274.390 341.681,272.590 342.465,271.600 342.904 C 269.497 343.836,269.003 344.031,265.800 345.193 C 264.480 345.672,263.087 346.230,262.705 346.432 C 262.323 346.634,261.684 346.800,261.285 346.800 C 260.886 346.800,260.389 346.947,260.180 347.128 C 259.788 347.466,253.927 349.353,249.000 350.728 C 243.866 352.160,243.395 352.318,244.130 352.359 C 245.436 352.432,259.839 348.177,263.200 346.725 C 263.750 346.487,264.605 346.137,265.100 345.946 C 266.849 345.273,268.208 344.703,268.895 344.353 C 269.277 344.159,269.774 344.000,269.999 344.000 C 270.433 344.000,273.175 342.836,275.738 341.563 C 276.584 341.144,277.529 340.800,277.838 340.800 C 278.147 340.800,278.400 340.620,278.400 340.400 C 278.400 340.180,278.665 340.000,278.988 340.000 C 279.564 340.000,281.826 338.845,283.389 337.752 C 284.744 336.804,283.516 337.250,280.600 338.763 M106.938 339.647 C 107.784 340.093,108.568 340.365,108.681 340.252 C 108.876 340.057,106.180 338.780,105.651 338.818 C 105.513 338.827,106.092 339.200,106.938 339.647 M135.600 350.352 C 135.930 350.538,136.830 350.802,137.600 350.938 C 138.443 351.088,138.761 351.052,138.400 350.848 C 138.070 350.662,137.170 350.398,136.400 350.262 C 135.557 350.112,135.239 350.148,135.600 350.352 M141.800 351.972 C 143.535 352.733,148.066 353.998,148.908 353.956 C 149.399 353.931,148.842 353.678,147.671 353.392 C 146.501 353.107,145.061 352.691,144.471 352.469 C 143.014 351.920,140.698 351.489,141.800 351.972 M240.107 352.776 C 237.644 353.177,237.633 353.516,240.091 353.292 C 242.163 353.104,244.353 352.379,242.600 352.462 C 242.160 352.483,241.038 352.624,240.107 352.776 M234.421 353.979 C 234.046 354.216,234.470 354.265,235.621 354.118 C 236.599 353.992,237.475 353.825,237.567 353.745 C 237.942 353.419,234.955 353.640,234.421 353.979 M150.600 354.400 C 151.040 354.589,151.940 354.735,152.600 354.725 L 153.800 354.705 152.600 354.400 C 151.940 354.232,151.040 354.086,150.600 354.075 L 149.800 354.056 150.600 354.400 M230.421 354.779 C 230.046 355.016,230.470 355.065,231.621 354.918 C 232.599 354.792,233.475 354.625,233.567 354.545 C 233.942 354.219,230.955 354.440,230.421 354.779 M154.400 355.200 C 154.730 355.413,155.810 355.570,156.800 355.548 L 158.600 355.508 157.000 355.177 C 154.673 354.696,153.634 354.705,154.400 355.200 M227.505 355.483 C 228.002 355.579,228.722 355.575,229.105 355.475 C 229.487 355.375,229.080 355.296,228.200 355.301 C 227.320 355.305,227.007 355.387,227.505 355.483 M159.400 355.986 C 160.157 356.325,163.521 356.564,163.167 356.254 C 163.075 356.174,162.010 356.000,160.800 355.868 C 159.363 355.712,158.878 355.752,159.400 355.986 M220.200 356.385 C 219.730 356.578,220.473 356.626,222.000 356.502 C 223.430 356.387,224.675 356.226,224.767 356.146 C 225.104 355.851,220.974 356.067,220.200 356.385 M163.692 356.614 C 164.316 357.263,177.041 358.352,186.200 358.541 C 190.160 358.623,192.230 358.633,190.800 358.565 C 184.815 358.279,174.391 357.540,171.600 357.205 C 165.550 356.477,163.407 356.317,163.692 356.614 M213.400 357.180 C 212.942 357.365,213.798 357.416,215.400 357.299 C 216.940 357.186,218.275 357.028,218.367 356.947 C 218.700 356.653,214.178 356.865,213.400 357.180 M202.000 358.012 C 201.010 358.173,202.540 358.212,205.400 358.099 C 208.260 357.985,210.675 357.827,210.767 357.746 C 211.058 357.490,203.873 357.708,202.000 358.012 " stroke="none" fill="#fcbc3b" fill-rule="evenodd"></path></g></svg>